<svg xmlns="http://www.w3.org/2000/svg" xmlns:xlink="http://www.w3.org/1999/xlink" contentStyleType="text/css" data-diagram-type="DESCRIPTION" height="978px" preserveAspectRatio="none" style="width:1540px;height:978px;background:#FFFFFF;" version="1.1" viewBox="0 0 1540 978" width="1540px" zoomAndPan="magnify"><?plantuml 1.2026.5?><defs/><g><!--cluster Frontend--><g class="cluster" data-qualified-name="Frontend" data-source-line="7" id="ent0001"><path d="M603.31,11 L670.3193,11 A3.75,3.75 0 0 1 672.8193,13.5 L679.8193,32.7993 L748.31,32.7993 A2.5,2.5 0 0 1 750.81,35.2993 L750.81,222.7 A2.5,2.5 0 0 1 748.31,225.2 L603.31,225.2 A2.5,2.5 0 0 1 600.81,222.7 L600.81,13.5 A2.5,2.5 0 0 1 603.31,11" fill="#E3F2FD" style="stroke:#000000;stroke-width:1;"/><line style="stroke:#000000;stroke-width:1;" x1="600.81" x2="679.8193" y1="32.7993" y2="32.7993"/><text fill="#000000" font-family="Verdana" font-size="13" font-weight="700" lengthAdjust="spacing" textLength="66.0093" x="604.81" y="26.0698">Frontend</text></g><!--cluster Backend (FastAPI)--><g class="cluster" data-qualified-name="Backend .FastAPI." data-source-line="12" id="ent0004"><path d="M42.31,274.2 L181.3144,274.2 A3.75,3.75 0 0 1 183.8144,276.7 L190.8144,295.9993 L1275.31,295.9993 A2.5,2.5 0 0 1 1277.81,298.4993 L1277.81,501.69 A2.5,2.5 0 0 1 1275.31,504.19 L42.31,504.19 A2.5,2.5 0 0 1 39.81,501.69 L39.81,276.7 A2.5,2.5 0 0 1 42.31,274.2" fill="#E8F5E9" style="stroke:#000000;stroke-width:1;"/><line style="stroke:#000000;stroke-width:1;" x1="39.81" x2="190.8144" y1="295.9993" y2="295.9993"/><text fill="#000000" font-family="Verdana" font-size="13" font-weight="700" lengthAdjust="spacing" textLength="138.0044" x="43.81" y="289.2698">Backend (FastAPI)</text></g><!--cluster Baza de Date--><g class="cluster" data-qualified-name="Baza de Date" data-source-line="23" id="ent0013"><path d="M69.31,553.19 L165.9755,553.19 A3.75,3.75 0 0 1 168.4755,555.69 L175.4755,574.9893 L634.31,574.9893 A2.5,2.5 0 0 1 636.81,577.4893 L636.81,960.89 A2.5,2.5 0 0 1 634.31,963.39 L69.31,963.39 A2.5,2.5 0 0 1 66.81,960.89 L66.81,555.69 A2.5,2.5 0 0 1 69.31,553.19" fill="#FFF3E0" style="stroke:#000000;stroke-width:1;"/><line style="stroke:#000000;stroke-width:1;" x1="66.81" x2="175.4755" y1="574.9893" y2="574.9893"/><text fill="#000000" font-family="Verdana" font-size="13" font-weight="700" lengthAdjust="spacing" textLength="95.6655" x="70.81" y="568.2598">Baza de Date</text></g><!--cluster DB--><g class="cluster" data-qualified-name="Baza de Date.DB" data-source-line="24" id="ent0014"><path d="M98.81,613.19 C98.81,603.19 351.81,603.19 351.81,603.19 C351.81,603.19 604.81,603.19 604.81,613.19 L604.81,921.39 C604.81,931.39 351.81,931.39 351.81,931.39 C351.81,931.39 98.81,931.39 98.81,921.39 L98.81,613.19" fill="#FFFFFF" style="stroke:#000000;stroke-width:1;"/><path d="M98.81,613.19 C98.81,623.19 351.81,623.19 351.81,623.19 C351.81,623.19 604.81,623.19 604.81,613.19" fill="none" style="stroke:#000000;stroke-width:1;"/><text fill="#000000" font-family="Verdana" font-size="13" font-weight="700" lengthAdjust="spacing" textLength="69.2148" x="317.2026" y="638.2598">MongoDB</text></g><!--cluster Servicii AI (Kaggle GPU T4 / HuggingFace)--><g class="cluster" data-qualified-name="Servicii AI .Kaggle GPU T4 . HuggingFace." data-source-line="36" id="ent0023"><path d="M1021.31,610.39 L1336.246,610.39 A3.75,3.75 0 0 1 1338.746,612.89 L1345.746,632.1893 L1523.31,632.1893 A2.5,2.5 0 0 1 1525.81,634.6893 L1525.81,725.29 A2.5,2.5 0 0 1 1523.31,727.79 L1021.31,727.79 A2.5,2.5 0 0 1 1018.81,725.29 L1018.81,612.89 A2.5,2.5 0 0 1 1021.31,610.39" fill="#F3E5F5" style="stroke:#000000;stroke-width:1;"/><line style="stroke:#000000;stroke-width:1;" x1="1018.81" x2="1345.746" y1="632.1893" y2="632.1893"/><text fill="#000000" font-family="Verdana" font-size="13" font-weight="700" lengthAdjust="spacing" textLength="313.936" x="1022.81" y="625.4598">Servicii AI (Kaggle GPU T4 / HuggingFace)</text></g><!--entity FE--><g class="entity" data-qualified-name="Frontend.FE" data-source-line="8" id="ent0002"><rect fill="#FFFFFF" height="51.5986" rx="2.5" ry="2.5" style="stroke:#000000;stroke-width:1;" width="117.2905" x="617.17" y="157.6"/><text fill="#000000" font-family="Verdana" font-size="13" lengthAdjust="spacing" textLength="82.7163" x="627.17" y="180.6698">React Native</text><text fill="#000000" font-family="Verdana" font-size="13" lengthAdjust="spacing" textLength="97.2905" x="627.17" y="196.4691">(Expo SDK 54)</text></g><!--entity Screens--><g class="entity" data-qualified-name="Frontend.Screens" data-source-line="9" id="ent0003"><rect fill="#FFFFFF" height="51.5986" rx="2.5" ry="2.5" style="stroke:#000000;stroke-width:1;" width="89.5449" x="631.04" y="45"/><text fill="#000000" font-family="Verdana" font-size="13" lengthAdjust="spacing" textLength="65.4189" x="641.04" y="68.0698">16 Ecrane</text><text fill="#000000" font-family="Verdana" font-size="13" lengthAdjust="spacing" textLength="69.5449" x="641.04" y="83.8691">TypeScript</text></g><!--entity API--><g class="entity" data-qualified-name="Backend .FastAPI..API" data-source-line="13" id="ent0005"><rect fill="#FFFFFF" height="51.5986" rx="2.5" ry="2.5" style="stroke:#000000;stroke-width:1;" width="109.0703" x="621.28" y="308.2"/><text fill="#000000" font-family="Verdana" font-size="13" lengthAdjust="spacing" textLength="49.3721" x="631.28" y="331.2698">FastAPI</text><text fill="#000000" font-family="Verdana" font-size="13" lengthAdjust="spacing" textLength="89.0703" x="631.28" y="347.0691">REST Routers</text></g><!--entity Auth--><g class="entity" data-qualified-name="Backend .FastAPI..Auth" data-source-line="14" id="ent0006"><rect fill="#FFFFFF" height="51.5986" rx="2.5" ry="2.5" style="stroke:#000000;stroke-width:1;" width="109.3115" x="56.16" y="428.69"/><text fill="#000000" font-family="Verdana" font-size="13" lengthAdjust="spacing" textLength="61.8071" x="66.16" y="451.7598">JWT Auth</text><text fill="#000000" font-family="Verdana" font-size="13" lengthAdjust="spacing" textLength="89.3115" x="66.16" y="467.5591">(HS256, 24h)</text></g><!--entity Solver--><g class="entity" data-qualified-name="Backend .FastAPI..Solver" data-source-line="15" id="ent0007"><rect fill="#FFFFFF" height="67.3979" rx="2.5" ry="2.5" style="stroke:#000000;stroke-width:1;" width="142.9351" x="1119.35" y="420.79"/><text fill="#000000" font-family="Verdana" font-size="13" lengthAdjust="spacing" textLength="66.9106" x="1129.35" y="443.8598">MathTutor</text><text fill="#000000" font-family="Verdana" font-size="13" lengthAdjust="spacing" textLength="119.7168" x="1129.35" y="459.6591">Rule-Based Solver</text><text fill="#000000" font-family="Verdana" font-size="13" lengthAdjust="spacing" textLength="122.9351" x="1129.35" y="475.4585">(12 tipuri exercitii)</text></g><!--entity Predictor--><g class="entity" data-qualified-name="Backend .FastAPI..Predictor" data-source-line="16" id="ent0008"><rect fill="#FFFFFF" height="67.3979" rx="2.5" ry="2.5" style="stroke:#000000;stroke-width:1;" width="172.5151" x="200.56" y="420.79"/><text fill="#000000" font-family="Verdana" font-size="13" lengthAdjust="spacing" textLength="85.7822" x="210.56" y="443.8598">Ensemble ML</text><text fill="#000000" font-family="Verdana" font-size="13" lengthAdjust="spacing" textLength="147.2402" x="210.56" y="459.6591">(11 modele candidate,</text><text fill="#000000" font-family="Verdana" font-size="13" lengthAdjust="spacing" textLength="152.5151" x="210.56" y="475.4585">Top-5 Voting/Stacking)</text></g><!--entity Gamif--><g class="entity" data-qualified-name="Backend .FastAPI..Gamif" data-source-line="17" id="ent0009"><rect fill="#FFFFFF" height="67.3979" rx="2.5" ry="2.5" style="stroke:#000000;stroke-width:1;" width="164.0156" x="407.81" y="420.79"/><text fill="#000000" font-family="Verdana" font-size="13" lengthAdjust="spacing" textLength="73.252" x="417.81" y="443.8598">Gamificatie</text><text fill="#000000" font-family="Verdana" font-size="13" lengthAdjust="spacing" textLength="144.0156" x="417.81" y="459.6591">XP, 10 Nivele, Streak,</text><text fill="#000000" font-family="Verdana" font-size="13" lengthAdjust="spacing" textLength="103.981" x="417.81" y="475.4585">8 Achievements</text></g><!--entity Adaptive--><g class="entity" data-qualified-name="Backend .FastAPI..Adaptive" data-source-line="18" id="ent0010"><rect fill="#FFFFFF" height="51.5986" rx="2.5" ry="2.5" style="stroke:#000000;stroke-width:1;" width="137.0762" x="607.27" y="428.69"/><text fill="#000000" font-family="Verdana" font-size="13" lengthAdjust="spacing" textLength="117.0762" x="617.27" y="451.7598">Invatare Adaptiva</text><text fill="#000000" font-family="Verdana" font-size="13" lengthAdjust="spacing" textLength="34.0107" x="617.27" y="467.5591">SM-2</text></g><!--entity Leagues--><g class="entity" data-qualified-name="Backend .FastAPI..Leagues" data-source-line="19" id="ent0011"><rect fill="#FFFFFF" height="51.5986" rx="2.5" ry="2.5" style="stroke:#000000;stroke-width:1;" width="149.5684" x="779.03" y="428.69"/><text fill="#000000" font-family="Verdana" font-size="13" lengthAdjust="spacing" textLength="105.314" x="789.03" y="451.7598">Ligi Competitive</text><text fill="#000000" font-family="Verdana" font-size="13" lengthAdjust="spacing" textLength="129.5684" x="789.03" y="467.5591">5 tiers saptamanale</text></g><!--entity Daily--><g class="entity" data-qualified-name="Backend .FastAPI..Daily" data-source-line="20" id="ent0012"><rect fill="#FFFFFF" height="51.5986" rx="2.5" ry="2.5" style="stroke:#000000;stroke-width:1;" width="121.2832" x="963.17" y="428.69"/><text fill="#000000" font-family="Verdana" font-size="13" lengthAdjust="spacing" textLength="101.2832" x="973.17" y="451.7598">Daily Challenge</text><text fill="#000000" font-family="Verdana" font-size="13" lengthAdjust="spacing" textLength="64.7842" x="973.17" y="467.5591">+25 XP/zi</text></g><!--entity users--><g class="entity" data-qualified-name="Baza de Date.DB.users" data-source-line="25" id="ent0015"><rect fill="#FFFFFF" height="35.7993" rx="2.5" ry="2.5" style="stroke:#000000;stroke-width:1;" width="55.0645" x="177.28" y="660.19"/><text fill="#000000" font-family="Verdana" font-size="13" lengthAdjust="spacing" textLength="35.0645" x="187.28" y="683.2598">users</text></g><!--entity exercises--><g class="entity" data-qualified-name="Baza de Date.DB.exercises" data-source-line="26" id="ent0016"><rect fill="#FFFFFF" height="35.7993" rx="2.5" ry="2.5" style="stroke:#000000;stroke-width:1;" width="80.3599" x="267.63" y="660.19"/><text fill="#000000" font-family="Verdana" font-size="13" lengthAdjust="spacing" textLength="60.3599" x="277.63" y="683.2598">exercises</text></g><!--entity attempts--><g class="entity" data-qualified-name="Baza de Date.DB.attempts" data-source-line="27" id="ent0017"><rect fill="#FFFFFF" height="35.7993" rx="2.5" ry="2.5" style="stroke:#000000;stroke-width:1;" width="78.4365" x="382.59" y="660.19"/><text fill="#000000" font-family="Verdana" font-size="13" lengthAdjust="spacing" textLength="58.4365" x="392.59" y="683.2598">attempts</text></g><!--entity user_exercise_history--><g class="entity" data-qualified-name="Baza de Date.DB.user_exercise_history" data-source-line="28" id="ent0018"><rect fill="#FFFFFF" height="35.7993" rx="2.5" ry="2.5" style="stroke:#000000;stroke-width:1;" width="163.2285" x="123.2" y="774.79"/><text fill="#000000" font-family="Verdana" font-size="13" lengthAdjust="spacing" textLength="143.2285" x="133.2" y="797.8598">user_exercise_history</text></g><!--entity user_achievements--><g class="entity" data-qualified-name="Baza de Date.DB.user_achievements" data-source-line="29" id="ent0019"><rect fill="#FFFFFF" height="35.7993" rx="2.5" ry="2.5" style="stroke:#000000;stroke-width:1;" width="146.623" x="321.5" y="774.79"/><text fill="#000000" font-family="Verdana" font-size="13" lengthAdjust="spacing" textLength="126.623" x="331.5" y="797.8598">user_achievements</text></g><!--entity leagues--><g class="entity" data-qualified-name="Baza de Date.DB.leagues" data-source-line="30" id="ent0020"><rect fill="#FFFFFF" height="35.7993" rx="2.5" ry="2.5" style="stroke:#000000;stroke-width:1;" width="69.9624" x="502.83" y="774.79"/><text fill="#000000" font-family="Verdana" font-size="13" lengthAdjust="spacing" textLength="49.9624" x="512.83" y="797.8598">leagues</text></g><!--entity daily_challenge_attempts--><g class="entity" data-qualified-name="Baza de Date.DB.daily_challenge_attempts" data-source-line="31" id="ent0021"><rect fill="#FFFFFF" height="35.7993" rx="2.5" ry="2.5" style="stroke:#000000;stroke-width:1;" width="187.4575" x="123.08" y="871.59"/><text fill="#000000" font-family="Verdana" font-size="13" lengthAdjust="spacing" textLength="167.4575" x="133.08" y="894.6598">daily_challenge_attempts</text></g><!--entity chat_history--><g class="entity" data-qualified-name="Baza de Date.DB.chat_history" data-source-line="32" id="ent0022"><rect fill="#FFFFFF" height="35.7993" rx="2.5" ry="2.5" style="stroke:#000000;stroke-width:1;" width="101.0151" x="345.31" y="871.59"/><text fill="#000000" font-family="Verdana" font-size="13" lengthAdjust="spacing" textLength="81.0151" x="355.31" y="894.6598">chat_history</text></g><!--entity LLM--><g class="entity" data-qualified-name="Servicii AI .Kaggle GPU T4 . HuggingFace..LLM" data-source-line="37" id="ent0024"><rect fill="#FFFFFF" height="67.3979" rx="2.5" ry="2.5" style="stroke:#000000;stroke-width:1;" width="225.0547" x="1035.29" y="644.39"/><text fill="#000000" font-family="Verdana" font-size="13" lengthAdjust="spacing" textLength="205.0547" x="1045.29" y="667.4598">DeepSeek-R1-Distill-Qwen-14B</text><text fill="#000000" font-family="Verdana" font-size="13" lengthAdjust="spacing" textLength="107.5864" x="1045.29" y="683.2591">+ QLoRA (r=16)</text><text fill="#000000" font-family="Verdana" font-size="13" lengthAdjust="spacing" textLength="169.7744" x="1045.29" y="699.0585">Rezolvare exercitii + Chat</text></g><!--entity OCR--><g class="entity" data-qualified-name="Servicii AI .Kaggle GPU T4 . HuggingFace..OCR" data-source-line="38" id="ent0025"><rect fill="#FFFFFF" height="51.5986" rx="2.5" ry="2.5" style="stroke:#000000;stroke-width:1;" width="214.105" x="1295.76" y="652.29"/><text fill="#000000" font-family="Verdana" font-size="13" lengthAdjust="spacing" textLength="194.105" x="1305.76" y="675.3598">Qwen3-VL-8B + QLoRA (r=8)</text><text fill="#000000" font-family="Verdana" font-size="13" lengthAdjust="spacing" textLength="87.9468" x="1305.76" y="691.1591">OCR din poze</text></g><!--link FE to API--><g class="link" data-entity-1="ent0002" data-entity-2="ent0005" data-link-type="dependency" data-source-line="41" id="lnk26"><path d="M675.81,209.6 C675.81,237.1 675.81,275.82 675.81,303.16" fill="none" id="FE-to-API" style="stroke:#000000;stroke-width:1;"/><polygon fill="#000000" points="675.81,308.16,679.81,299.16,675.81,303.16,671.81,299.16,675.81,308.16" style="stroke:#000000;stroke-width:1;stroke-linejoin:miter;stroke-miterlimit:10;"/><text fill="#000000" font-family="Verdana" font-size="13" lengthAdjust="spacing" textLength="124.8203" x="676.81" y="255.2698">HTTP/REST (JSON)</text></g><!--link Screens to FE--><g class="link" data-entity-1="ent0003" data-entity-2="ent0002" data-link-type="dependency" data-source-line="42" id="lnk27"><path d="M675.81,96.89 C675.81,114.99 675.81,134.32 675.81,152.4" fill="none" id="Screens-to-FE" style="stroke:#000000;stroke-width:1;"/><polygon fill="#000000" points="675.81,157.4,679.81,148.4,675.81,152.4,671.81,148.4,675.81,157.4" style="stroke:#000000;stroke-width:1;stroke-linejoin:miter;stroke-miterlimit:10;"/></g><!--link API to Auth--><g class="link" data-entity-1="ent0005" data-entity-2="ent0006" data-link-type="dependency" data-source-line="43" id="lnk28"><path d="M621.14,339.93 C529.04,349.25 337.84,372.96 182.81,420.79 C175.99,422.9 173.5992,423.6105 166.7392,426.4105" fill="none" id="API-to-Auth" style="stroke:#000000;stroke-width:1;"/><polygon fill="#000000" points="162.11,428.3,171.9542,428.6023,166.7392,426.4105,168.931,421.1955,162.11,428.3" style="stroke:#000000;stroke-width:1;stroke-linejoin:miter;stroke-miterlimit:10;"/></g><!--link API to Solver--><g class="link" data-entity-1="ent0005" data-entity-2="ent0007" data-link-type="dependency" data-source-line="44" id="lnk29"><path d="M730.58,343.26 C812.3,356.22 970.59,383.71 1101.81,420.79 C1107.52,422.41 1108.6161,422.6605 1114.4761,424.5705" fill="none" id="API-to-Solver" style="stroke:#000000;stroke-width:1;"/><polygon fill="#000000" points="1119.23,426.12,1111.9126,419.5279,1114.4761,424.5705,1109.4335,427.134,1119.23,426.12" style="stroke:#000000;stroke-width:1;stroke-linejoin:miter;stroke-miterlimit:10;"/></g><!--link API to Predictor--><g class="link" data-entity-1="ent0005" data-entity-2="ent0008" data-link-type="dependency" data-source-line="45" id="lnk30"><path d="M620.91,351.18 C563.27,368.24 470.06,396.02 389.81,420.79 C384.43,422.45 383.6726,422.6891 378.1026,424.4291" fill="none" id="API-to-Predictor" style="stroke:#000000;stroke-width:1;"/><polygon fill="#000000" points="373.33,425.92,383.1133,427.0544,378.1026,424.4291,380.7279,419.4184,373.33,425.92" style="stroke:#000000;stroke-width:1;stroke-linejoin:miter;stroke-miterlimit:10;"/></g><!--link API to Gamif--><g class="link" data-entity-1="ent0005" data-entity-2="ent0009" data-link-type="dependency" data-source-line="46" id="lnk31"><path d="M636.37,360.13 C608.85,377.65 576.0766,398.5329 546.1366,417.6129" fill="none" id="API-to-Gamif" style="stroke:#000000;stroke-width:1;"/><polygon fill="#000000" points="541.92,420.3,551.6595,418.8365,546.1366,417.6129,547.3601,412.0899,541.92,420.3" style="stroke:#000000;stroke-width:1;stroke-linejoin:miter;stroke-miterlimit:10;"/></g><!--link API to Adaptive--><g class="link" data-entity-1="ent0005" data-entity-2="ent0010" data-link-type="dependency" data-source-line="47" id="lnk32"><path d="M675.81,360.13 C675.81,380.24 675.81,403.3 675.81,423.4" fill="none" id="API-to-Adaptive" style="stroke:#000000;stroke-width:1;"/><polygon fill="#000000" points="675.81,428.4,679.81,419.4,675.81,423.4,671.81,419.4,675.81,428.4" style="stroke:#000000;stroke-width:1;stroke-linejoin:miter;stroke-miterlimit:10;"/></g><!--link API to Leagues--><g class="link" data-entity-1="ent0005" data-entity-2="ent0011" data-link-type="dependency" data-source-line="48" id="lnk33"><path d="M713.56,360.13 C743.67,380.17 781.4783,405.3387 811.6483,425.4287" fill="none" id="API-to-Leagues" style="stroke:#000000;stroke-width:1;"/><polygon fill="#000000" points="815.81,428.2,810.5359,419.8823,811.6483,425.4287,806.1019,426.5411,815.81,428.2" style="stroke:#000000;stroke-width:1;stroke-linejoin:miter;stroke-miterlimit:10;"/></g><!--link API to Daily--><g class="link" data-entity-1="ent0005" data-entity-2="ent0012" data-link-type="dependency" data-source-line="49" id="lnk34"><path d="M730.6,350.84 C785.49,367.08 872.18,393.72 945.81,420.79 C952.15,423.13 954.0896,423.8081 960.6196,426.4281" fill="none" id="API-to-Daily" style="stroke:#000000;stroke-width:1;"/><polygon fill="#000000" points="965.26,428.29,958.3967,421.2263,960.6196,426.4281,955.4178,428.651,965.26,428.29" style="stroke:#000000;stroke-width:1;stroke-linejoin:miter;stroke-miterlimit:10;"/></g><!--link API to DB--><g class="link" data-entity-1="ent0005" data-entity-2="ent0014" data-link-type="dependency" data-source-line="50" id="lnk35"><path d="M620.79,338.32 C473.18,347.81 76.98,377.14 38.81,420.79 C12.08,451.38 11,482.58 38.81,512.19 C69.22,544.57 393.47,534.63 437.81,537.19 C446.2,537.68 582.85,539.28 588.81,545.19 C609.33,565.555 611.59,597.8275 608.5937,625.3525 C607.8447,632.2338 606.7671,638.8183 605.5642,644.8459 C605.4138,645.5993 605.2615,646.3441 605.1076,647.0796 C605.0307,647.4474 605.9993,642.9234 605.9216,643.2865" fill="none" id="API-to-DB" style="stroke:#000000;stroke-width:1;"/><polygon fill="#000000" points="604.8757,648.1759,610.6698,640.2118,605.9216,643.2865,602.8468,638.5383,604.8757,648.1759" style="stroke:#000000;stroke-width:1;stroke-linejoin:miter;stroke-miterlimit:10;"/></g><!--link Solver to LLM--><g class="link" data-entity-1="ent0007" data-entity-2="ent0024" data-link-type="dependency" data-source-line="51" id="lnk36"><path d="M1184.38,488.67 C1176.25,530.57 1163.2928,597.3116 1155.1728,639.1416" fill="none" id="Solver-to-LLM" style="stroke:#000000;stroke-width:1;"/><polygon fill="#000000" points="1154.22,644.05,1159.8618,635.9772,1155.1728,639.1416,1152.0084,634.4527,1154.22,644.05" style="stroke:#000000;stroke-width:1;stroke-linejoin:miter;stroke-miterlimit:10;"/><text fill="#000000" font-family="Verdana" font-size="13" lengthAdjust="spacing" textLength="147.6719" x="1179.11" y="534.2598">fallback (Flask+ngrok)</text></g><!--link API to OCR--><g class="link" data-entity-1="ent0005" data-entity-2="ent0025" data-link-type="dependency" data-source-line="52" id="lnk37"><path d="M730.4,336.63 C861.75,341.5 1191.07,359.66 1279.81,420.79 C1360.29,476.24 1388.9968,594.3051 1398.2668,647.1951" fill="none" id="API-to-OCR" style="stroke:#000000;stroke-width:1;"/><polygon fill="#000000" points="1399.13,652.12,1401.5162,642.5646,1398.2668,647.1951,1393.6363,643.9457,1399.13,652.12" style="stroke:#000000;stroke-width:1;stroke-linejoin:miter;stroke-miterlimit:10;"/><text fill="#000000" font-family="Verdana" font-size="13" lengthAdjust="spacing" textLength="81.4087" x="1355.21" y="460.0598">Flask+ngrok</text></g><!--link Predictor to DB--><g class="link" data-entity-1="ent0008" data-entity-2="ent0014" data-link-type="dependency" data-source-line="53" id="lnk38"><path d="M338.94,488.65 C354.77,497.48 372.55,506.21 389.81,512.19 C400.4,515.86 581.31,536.87 588.81,545.19 C608.165,566.665 610.405,598.9525 607.69,626.2075 C607.0113,633.0212 606.0228,639.5205 604.9147,645.4576 C604.8801,645.6431 605.7739,640.9151 605.739,641.0995" fill="none" id="Predictor-to-DB" style="stroke:#000000;stroke-width:1;"/><polygon fill="#000000" points="604.8105,646.0125,610.4123,637.9119,605.739,641.0995,602.5514,636.4262,604.8105,646.0125" style="stroke:#000000;stroke-width:1;stroke-linejoin:miter;stroke-miterlimit:10;"/></g><!--link Gamif to DB--><g class="link" data-entity-1="ent0009" data-entity-2="ent0014" data-link-type="dependency" data-source-line="54" id="lnk39"><path d="M540.47,488.55 C559.01,503.48 578.07,522.82 588.81,545.19 C595.065,558.22 598.7262,572.825 600.6916,587.4406 C601.1829,591.0945 601.5682,594.7491 601.8616,598.3799 C601.9349,599.2876 602.0025,600.1938 602.0646,601.0981 C602.0956,601.5503 602.1253,602.002 602.1536,602.4532 C602.1677,602.6788 601.8831,597.9132 601.8966,598.1385" fill="none" id="Gamif-to-DB" style="stroke:#000000;stroke-width:1;"/><polygon fill="#000000" points="602.195,603.1296,605.6507,593.9069,601.8966,598.1385,597.6649,594.3844,602.195,603.1296" style="stroke:#000000;stroke-width:1;stroke-linejoin:miter;stroke-miterlimit:10;"/></g><!--link Adaptive to DB--><g class="link" data-entity-1="ent0010" data-entity-2="ent0014" data-link-type="dependency" data-source-line="55" id="lnk40"><path d="M666.9,480.48 C656.735,509.005 639.5975,557.08 624.8137,598.55 C617.4219,619.285 610.6184,638.3688 605.5692,652.5319 C605.4114,652.9745 605.2554,653.4123 605.101,653.8452 C605.0239,654.0616 606.6262,649.5672 606.5499,649.7811" fill="none" id="Adaptive-to-DB" style="stroke:#000000;stroke-width:1;"/><polygon fill="#000000" points="604.8709,654.4908,611.6608,647.3566,606.5499,649.7811,604.1254,644.6702,604.8709,654.4908" style="stroke:#000000;stroke-width:1;stroke-linejoin:miter;stroke-miterlimit:10;"/></g><!--link Leagues to DB--><g class="link" data-entity-1="ent0011" data-entity-2="ent0014" data-link-type="dependency" data-source-line="56" id="lnk41"><path d="M824.83,480.48 C791.75,509.005 735.9975,557.08 687.9038,598.55 C663.8569,619.285 641.7247,638.3688 625.2986,652.5319 C617.0855,659.6134 610.299,665.4648 605.4129,669.6774 C605.2603,669.8091 608.8963,666.6742 608.7473,666.8027" fill="none" id="Leagues-to-DB" style="stroke:#000000;stroke-width:1;"/><polygon fill="#000000" points="604.9605,670.0675,614.3888,667.2203,608.7473,666.8027,609.165,661.1612,604.9605,670.0675" style="stroke:#000000;stroke-width:1;stroke-linejoin:miter;stroke-miterlimit:10;"/></g><!--link Daily to DB--><g class="link" data-entity-1="ent0012" data-entity-2="ent0014" data-link-type="dependency" data-source-line="57" id="lnk42"><path d="M992.1,480.62 C978.28,491.02 961.66,502.8 945.81,512.19 C873.17,555.24 787.49,595.86 719.2037,626.0138 C685.0606,641.0906 655.2659,653.5509 633.6239,662.3902 C622.8029,666.8098 614.02,670.3241 607.7509,672.8076 C606.9672,673.118 606.2229,673.4124 605.5187,673.6903 C605.3427,673.7598 609.8204,671.9937 609.6494,672.0612" fill="none" id="Daily-to-DB" style="stroke:#000000;stroke-width:1;"/><polygon fill="#000000" points="604.9981,673.8958,614.8381,674.3145,609.6494,672.0612,611.9028,666.8725,604.9981,673.8958" style="stroke:#000000;stroke-width:1;stroke-linejoin:miter;stroke-miterlimit:10;"/></g><?plantuml-src RLHjJ-904FxUNp77VO5eWo0rdibT0jBw1egKyqpEYndRiMmekqsxHU7YVxzfbs8rrq-TcMVUdzalUavBWYH68Qri8MI2AIxX2OD5bAfSXgSgLYcyp8MccZrGoqH9ajhNwvWWfK2ZZE8w9AHdp6FjAGQ93K7dqBAiXEDYHD3mKjQJ31lmrJtqkjuG_bh0t-yfOQ3X6hLOqODikg-90dzu1KwlzGSm0yyrkCuHk46Aaa6pTK9-a8f4bmZ-9PAPzLPBD-0VpWPD3pFTdroqYhp7dkD-g_9k3GzowlepcAfSKvgLyLXh89U_Pj3FzPpBElUxpj4-T7jpKrMXDg0nwlairohbI7bCzW0p2i5NyOfOrUnqGOiaJmNGAwM1q4AO20PXOhWoe-KJptKyAbmwi5GXiHYW34M8clQvQPNO3jmfBMJKzZNtnpycr2IbK0HSWebsXalnB0AUAC_gVh8FdGEuvkd6j0--JWaN7EuO-i5Sq8h98BNfk_Gp8Ixa2ZMc1FqG4zuCFaX_R7TDwqP51ZaIaO1JPWTfOLReSCCyIiWOXakK65FfDoACSigCsn15l8RJESOnoOYzzheEt4_Q6r5YI_EdXMwGASOMJRnBp_CEtOFjBdb2-CHZXyPOoKWD1uqonc1hBXFcMR7UTzbi8wEw3hMcPQBhgiBjiS8-paN6Krv_jcDzak-ss3HSquH5Muz1rVNZVnAoKN_Cy_PX3ZwbAn480VqBQ5vXn3S8PvEVCEj16yxpA69MU1XGGNWUaUCv5U67H8bFjB2d7Nl82KGSsxSl9ErERy3pXzkHclQXcNxl7BMOoxHXWXOKsF4Mzeg5cPiRZSOcQX7XqBuRsSS3gCKuvX0tfrC8XOH4RGm3M57quhbWsp-ACuCJE9_D9kto19kN_irrozfUSmdXsozG9Reuk4hOtaubllE_qXWgxtmhnbQAYegLREYsamQMIM2mep6N-SmhAzv8Vb1Yp1PxaX_BHMldKhHw0ZMJjQkf2bcML0bLHPMyBQWIpNLiXNy0?></g></svg>