<svg xmlns="http://www.w3.org/2000/svg" xmlns:xlink="http://www.w3.org/1999/xlink" contentStyleType="text/css" data-diagram-type="DESCRIPTION" height="776px" preserveAspectRatio="none" style="width:1127px;height:776px;background:#FFFFFF;" version="1.1" viewBox="0 0 1127 776" width="1127px" zoomAndPan="magnify"><?plantuml 1.2026.5?><defs/><g><!--cluster Date--><g class="cluster" data-qualified-name="Date" data-source-line="6" id="ent0001"><path d="M506.5,11 L541.5298,11 A3.75,3.75 0 0 1 544.0298,13.5 L551.0298,32.7993 L765.5,32.7993 A2.5,2.5 0 0 1 768,35.2993 L768,120.1 A2.5,2.5 0 0 1 765.5,122.6 L506.5,122.6 A2.5,2.5 0 0 1 504,120.1 L504,13.5 A2.5,2.5 0 0 1 506.5,11" fill="#E3F2FD" style="stroke:#000000;stroke-width:1;"/><line style="stroke:#000000;stroke-width:1;" x1="504" x2="551.0298" y1="32.7993" y2="32.7993"/><text fill="#000000" font-family="Verdana" font-size="13" font-weight="700" lengthAdjust="spacing" textLength="34.0298" x="508" y="26.0698">Date</text></g><!--cluster Rezolvare exerci?ii--><g class="cluster" data-qualified-name="Rezolvare exerci.ii" data-source-line="10" id="ent0003"><path d="M297.5,155.6 L434.4224,155.6 A3.75,3.75 0 0 1 436.9224,158.1 L443.9224,177.3993 L772.5,177.3993 A2.5,2.5 0 0 1 775,179.8993 L775,264.7 A2.5,2.5 0 0 1 772.5,267.2 L297.5,267.2 A2.5,2.5 0 0 1 295,264.7 L295,158.1 A2.5,2.5 0 0 1 297.5,155.6" fill="#FFF3E0" style="stroke:#000000;stroke-width:1;"/><line style="stroke:#000000;stroke-width:1;" x1="295" x2="443.9224" y1="177.3993" y2="177.3993"/><text fill="#000000" font-family="Verdana" font-size="13" font-weight="700" lengthAdjust="spacing" textLength="135.9224" x="299" y="170.6698">Rezolvare exerci&#539;ii</text></g><!--cluster OCR (scanare poze)--><g class="cluster" data-qualified-name="OCR .scanare poze." data-source-line="15" id="ent0006"><path d="M801.5,155.6 L947.6328,155.6 A3.75,3.75 0 0 1 950.1328,158.1 L957.1328,177.3993 L968.5,177.3993 A2.5,2.5 0 0 1 971,179.8993 L971,264.7 A2.5,2.5 0 0 1 968.5,267.2 L801.5,267.2 A2.5,2.5 0 0 1 799,264.7 L799,158.1 A2.5,2.5 0 0 1 801.5,155.6" fill="#F3E5F5" style="stroke:#000000;stroke-width:1;"/><line style="stroke:#000000;stroke-width:1;" x1="799" x2="957.1328" y1="177.3993" y2="177.3993"/><text fill="#000000" font-family="Verdana" font-size="13" font-weight="700" lengthAdjust="spacing" textLength="145.1328" x="803" y="170.6698">OCR (scanare poze)</text></g><!--cluster Predic?ie not? BAC--><g class="cluster" data-qualified-name="Predic.ie not. BAC" data-source-line="19" id="ent0008"><path d="M13.5,155.6 L150.3843,155.6 A3.75,3.75 0 0 1 152.8843,158.1 L159.8843,177.3993 L268.5,177.3993 A2.5,2.5 0 0 1 271,179.8993 L271,670.49 A2.5,2.5 0 0 1 268.5,672.99 L13.5,672.99 A2.5,2.5 0 0 1 11,670.49 L11,158.1 A2.5,2.5 0 0 1 13.5,155.6" fill="#FFEBEE" style="stroke:#000000;stroke-width:1;"/><line style="stroke:#000000;stroke-width:1;" x1="11" x2="159.8843" y1="177.3993" y2="177.3993"/><text fill="#000000" font-family="Verdana" font-size="13" font-weight="700" lengthAdjust="spacing" textLength="135.8843" x="15" y="170.6698">Predic&#539;ie not&#259; BAC</text></g><!--cluster Antrenare & Servire--><g class="cluster" data-qualified-name="Antrenare . Servire" data-source-line="26" id="ent0013"><path d="M755.5,316.2 L902.3247,316.2 A3.75,3.75 0 0 1 904.8247,318.7 L911.8247,337.9993 L1109.5,337.9993 A2.5,2.5 0 0 1 1112,340.4993 L1112,539.99 A2.5,2.5 0 0 1 1109.5,542.49 L755.5,542.49 A2.5,2.5 0 0 1 753,539.99 L753,318.7 A2.5,2.5 0 0 1 755.5,316.2" fill="#E8F5E9" style="stroke:#000000;stroke-width:1;"/><line style="stroke:#000000;stroke-width:1;" x1="753" x2="911.8247" y1="337.9993" y2="337.9993"/><text fill="#000000" font-family="Verdana" font-size="13" font-weight="700" lengthAdjust="spacing" textLength="145.8247" x="757" y="331.2698">Antrenare &amp; Servire</text></g><!--entity Data--><g class="entity" data-qualified-name="Date.Data" data-source-line="7" id="ent0002"><rect fill="#FFFFFF" height="61.5986" rx="2.5" ry="2.5" style="stroke:#000000;stroke-width:1;" width="232.8164" x="519.59" y="45"/><rect fill="#FFFFFF" height="10" style="stroke:#000000;stroke-width:1;" width="15" x="732.4064" y="50"/><rect fill="#FFFFFF" height="2" style="stroke:#000000;stroke-width:1;" width="4" x="730.4064" y="52"/><rect fill="#FFFFFF" height="2" style="stroke:#000000;stroke-width:1;" width="4" x="730.4064" y="56"/><text fill="#000000" font-family="Verdana" font-size="13" lengthAdjust="spacing" textLength="125.6074" x="534.59" y="78.0698">4.541 Exerci&#539;ii BAC</text><text fill="#000000" font-family="Verdana" font-size="13" lengthAdjust="spacing" textLength="192.8164" x="534.59" y="93.8691">Subiect I, II, III (2008-2025)</text></g><!--entity Solver--><g class="entity" data-qualified-name="Rezolvare exerci.ii.Solver" data-source-line="11" id="ent0004"><rect fill="#FFFFFF" height="61.5986" rx="2.5" ry="2.5" style="stroke:#000000;stroke-width:1;" width="167.0229" x="311.49" y="189.6"/><rect fill="#FFFFFF" height="10" style="stroke:#000000;stroke-width:1;" width="15" x="458.5129" y="194.6"/><rect fill="#FFFFFF" height="2" style="stroke:#000000;stroke-width:1;" width="4" x="456.5129" y="196.6"/><rect fill="#FFFFFF" height="2" style="stroke:#000000;stroke-width:1;" width="4" x="456.5129" y="200.6"/><text fill="#000000" font-family="Verdana" font-size="13" lengthAdjust="spacing" textLength="66.9106" x="326.49" y="222.6698">MathTutor</text><text fill="#000000" font-family="Verdana" font-size="13" lengthAdjust="spacing" textLength="127.0229" x="326.49" y="238.4691">Rule-Based (regex)</text></g><!--entity LLM--><g class="entity" data-qualified-name="Rezolvare exerci.ii.LLM" data-source-line="12" id="ent0005"><rect fill="#FFFFFF" height="61.5986" rx="2.5" ry="2.5" style="stroke:#000000;stroke-width:1;" width="245.0547" x="513.47" y="189.6"/><rect fill="#FFFFFF" height="10" style="stroke:#000000;stroke-width:1;" width="15" x="738.5247" y="194.6"/><rect fill="#FFFFFF" height="2" style="stroke:#000000;stroke-width:1;" width="4" x="736.5247" y="196.6"/><rect fill="#FFFFFF" height="2" style="stroke:#000000;stroke-width:1;" width="4" x="736.5247" y="200.6"/><text fill="#000000" font-family="Verdana" font-size="13" lengthAdjust="spacing" textLength="205.0547" x="528.47" y="222.6698">DeepSeek-R1-Distill-Qwen-14B</text><text fill="#000000" font-family="Verdana" font-size="13" lengthAdjust="spacing" textLength="142.3462" x="528.47" y="238.4691">+ QLoRA (NF4, r=16)</text></g><!--entity VLM--><g class="entity" data-qualified-name="OCR .scanare poze..VLM" data-source-line="16" id="ent0007"><rect fill="#FFFFFF" height="61.5986" rx="2.5" ry="2.5" style="stroke:#000000;stroke-width:1;" width="139.3218" x="815.34" y="189.6"/><rect fill="#FFFFFF" height="10" style="stroke:#000000;stroke-width:1;" width="15" x="934.6618" y="194.6"/><rect fill="#FFFFFF" height="2" style="stroke:#000000;stroke-width:1;" width="4" x="932.6618" y="196.6"/><rect fill="#FFFFFF" height="2" style="stroke:#000000;stroke-width:1;" width="4" x="932.6618" y="200.6"/><text fill="#000000" font-family="Verdana" font-size="13" lengthAdjust="spacing" textLength="90.2129" x="830.34" y="222.6698">Qwen3-VL-8B</text><text fill="#000000" font-family="Verdana" font-size="13" lengthAdjust="spacing" textLength="99.3218" x="830.34" y="238.4691">+ QLoRA (r=8)</text></g><!--entity Feat--><g class="entity" data-qualified-name="Predic.ie not. BAC.Feat" data-source-line="20" id="ent0009"><rect fill="#FFFFFF" height="61.5986" rx="2.5" ry="2.5" style="stroke:#000000;stroke-width:1;" width="187.7227" x="57.14" y="189.6"/><rect fill="#FFFFFF" height="10" style="stroke:#000000;stroke-width:1;" width="15" x="224.8627" y="194.6"/><rect fill="#FFFFFF" height="2" style="stroke:#000000;stroke-width:1;" width="4" x="222.8627" y="196.6"/><rect fill="#FFFFFF" height="2" style="stroke:#000000;stroke-width:1;" width="4" x="222.8627" y="200.6"/><text fill="#000000" font-family="Verdana" font-size="13" lengthAdjust="spacing" textLength="74.6357" x="72.14" y="222.6698">30 features</text><text fill="#000000" font-family="Verdana" font-size="13" lengthAdjust="spacing" textLength="147.7227" x="72.14" y="238.4691">(performan&#539;a elevului)</text></g><!--entity Models--><g class="entity" data-qualified-name="Predic.ie not. BAC.Models" data-source-line="21" id="ent0010"><rect fill="#FFFFFF" height="77.3979" rx="2.5" ry="2.5" style="stroke:#000000;stroke-width:1;" width="228.6143" x="26.69" y="334.4"/><rect fill="#FFFFFF" height="10" style="stroke:#000000;stroke-width:1;" width="15" x="235.3043" y="339.4"/><rect fill="#FFFFFF" height="2" style="stroke:#000000;stroke-width:1;" width="4" x="233.3043" y="341.4"/><rect fill="#FFFFFF" height="2" style="stroke:#000000;stroke-width:1;" width="4" x="233.3043" y="345.4"/><text fill="#000000" font-family="Verdana" font-size="13" lengthAdjust="spacing" textLength="136.6079" x="41.69" y="367.4698">11 modele candidate</text><text fill="#000000" font-family="Verdana" font-size="13" lengthAdjust="spacing" textLength="188.6143" x="41.69" y="383.2691">(Ridge, SVR, RF, ExtraTrees,</text><text fill="#000000" font-family="Verdana" font-size="13" lengthAdjust="spacing" textLength="174.4336" x="41.69" y="399.0685">GB, HistGB, XGB, MLP, ...)</text></g><!--entity Top5--><g class="entity" data-qualified-name="Predic.ie not. BAC.Top5" data-source-line="22" id="ent0011"><rect fill="#FFFFFF" height="61.5986" rx="2.5" ry="2.5" style="stroke:#000000;stroke-width:1;" width="200.3291" x="51.84" y="472.79"/><rect fill="#FFFFFF" height="10" style="stroke:#000000;stroke-width:1;" width="15" x="232.1691" y="477.79"/><rect fill="#FFFFFF" height="2" style="stroke:#000000;stroke-width:1;" width="4" x="230.1691" y="479.79"/><rect fill="#FFFFFF" height="2" style="stroke:#000000;stroke-width:1;" width="4" x="230.1691" y="483.79"/><text fill="#000000" font-family="Verdana" font-size="13" lengthAdjust="spacing" textLength="160.3291" x="66.84" y="505.8598">Top-5 selectate automat</text><text fill="#000000" font-family="Verdana" font-size="13" lengthAdjust="spacing" textLength="108.2466" x="66.84" y="521.6591">(dup&#259; RMSE CV)</text></g><!--entity Ensemble--><g class="entity" data-qualified-name="Predic.ie not. BAC.Ensemble" data-source-line="23" id="ent0012"><rect fill="#FFFFFF" height="61.5986" rx="2.5" ry="2.5" style="stroke:#000000;stroke-width:1;" width="153.0137" x="90.49" y="595.39"/><rect fill="#FFFFFF" height="10" style="stroke:#000000;stroke-width:1;" width="15" x="223.5037" y="600.39"/><rect fill="#FFFFFF" height="2" style="stroke:#000000;stroke-width:1;" width="4" x="221.5037" y="602.39"/><rect fill="#FFFFFF" height="2" style="stroke:#000000;stroke-width:1;" width="4" x="221.5037" y="606.39"/><text fill="#000000" font-family="Verdana" font-size="13" lengthAdjust="spacing" textLength="113.0137" x="105.49" y="628.4598">Voting / Stacking</text><text fill="#000000" font-family="Verdana" font-size="13" lengthAdjust="spacing" textLength="65.1587" x="105.49" y="644.2591">Regressor</text></g><!--entity Kaggle--><g class="entity" data-qualified-name="Antrenare . Servire.Kaggle" data-source-line="27" id="ent0014"><rect fill="#FFFFFF" height="45.7993" rx="2.5" ry="2.5" style="stroke:#000000;stroke-width:1;" width="137.1763" x="958.41" y="350.2"/><rect fill="#FFFFFF" height="10" style="stroke:#000000;stroke-width:1;" width="15" x="1075.5863" y="355.2"/><rect fill="#FFFFFF" height="2" style="stroke:#000000;stroke-width:1;" width="4" x="1073.5863" y="357.2"/><rect fill="#FFFFFF" height="2" style="stroke:#000000;stroke-width:1;" width="4" x="1073.5863" y="361.2"/><text fill="#000000" font-family="Verdana" font-size="13" lengthAdjust="spacing" textLength="97.1763" x="973.41" y="383.2698">Kaggle GPU T4</text></g><!--entity HF--><g class="entity" data-qualified-name="Antrenare . Servire.HF" data-source-line="28" id="ent0015"><rect fill="#FFFFFF" height="45.7993" rx="2.5" ry="2.5" style="stroke:#000000;stroke-width:1;" width="154.5498" x="768.73" y="350.2"/><rect fill="#FFFFFF" height="10" style="stroke:#000000;stroke-width:1;" width="15" x="903.2798" y="355.2"/><rect fill="#FFFFFF" height="2" style="stroke:#000000;stroke-width:1;" width="4" x="901.2798" y="357.2"/><rect fill="#FFFFFF" height="2" style="stroke:#000000;stroke-width:1;" width="4" x="901.2798" y="361.2"/><text fill="#000000" font-family="Verdana" font-size="13" lengthAdjust="spacing" textLength="114.5498" x="783.73" y="383.2698">HuggingFace Hub</text></g><!--entity Serve--><g class="entity" data-qualified-name="Antrenare . Servire.Serve" data-source-line="29" id="ent0016"><rect fill="#FFFFFF" height="45.7993" rx="2.5" ry="2.5" style="stroke:#000000;stroke-width:1;" width="157.3174" x="769.34" y="480.69"/><rect fill="#FFFFFF" height="10" style="stroke:#000000;stroke-width:1;" width="15" x="906.6574" y="485.69"/><rect fill="#FFFFFF" height="2" style="stroke:#000000;stroke-width:1;" width="4" x="904.6574" y="487.69"/><rect fill="#FFFFFF" height="2" style="stroke:#000000;stroke-width:1;" width="4" x="904.6574" y="491.69"/><text fill="#000000" font-family="Verdana" font-size="13" lengthAdjust="spacing" textLength="117.3174" x="784.34" y="513.7598">API Flask + ngrok</text></g><g class="entity" data-qualified-name="GMN29" data-source-line="47" id="ent0030"><path d="M289.92,352.3 L289.92,393.8986 A0,0 0 0 0 289.92,393.8986 L466.0758,393.8986 A0,0 0 0 0 466.0758,393.8986 L466.0758,362.3 L456.0758,352.3 L384.25,352.3 L391.6,251.53 L376.25,352.3 L289.92,352.3 A0,0 0 0 0 289.92,352.3" fill="#FFFFFF" style="stroke:#000000;stroke-width:1;"/><path d="M456.0758,352.3 L456.0758,362.3 L466.0758,362.3 L456.0758,352.3" fill="#FFFFFF" style="stroke:#000000;stroke-width:1;"/><text fill="#000000" font-family="Verdana" font-size="13" lengthAdjust="spacing" textLength="155.1558" x="295.92" y="370.3698">Treapta 1: tipuri clasice</text><text fill="#000000" font-family="Verdana" font-size="13" lengthAdjust="spacing" textLength="83.2051" x="295.92" y="386.1691">100% corect</text></g><g class="entity" data-qualified-name="GMN32" data-source-line="52" id="ent0033"><path d="M500.58,360.2 L500.58,385.9993 A0,0 0 0 0 500.58,385.9993 L733.4203,385.9993 A0,0 0 0 0 733.4203,385.9993 L733.4203,370.2 L723.4203,360.2 L622.55,360.2 L632.2,251.53 L614.55,360.2 L500.58,360.2 A0,0 0 0 0 500.58,360.2" fill="#FFFFFF" style="stroke:#000000;stroke-width:1;"/><path d="M723.4203,360.2 L723.4203,370.2 L733.4203,370.2 L723.4203,360.2" fill="#FFFFFF" style="stroke:#000000;stroke-width:1;"/><text fill="#000000" font-family="Verdana" font-size="13" lengthAdjust="spacing" textLength="211.8403" x="506.58" y="378.2698">Treapta 2: ra&#539;ionament &lt;think&gt;</text></g><g class="entity" data-qualified-name="GMN35" data-source-line="56" id="ent0036"><path d="M93,719.99 L93,761.5886 A0,0 0 0 0 93,761.5886 L241.0039,761.5886 A0,0 0 0 0 241.0039,761.5886 L241.0039,729.99 L231.0039,719.99 L171,719.99 L167,657.37 L163,719.99 L93,719.99 A0,0 0 0 0 93,719.99" fill="#FFFFFF" style="stroke:#000000;stroke-width:1;"/><path d="M231.0039,719.99 L231.0039,729.99 L241.0039,729.99 L231.0039,719.99" fill="#FFFFFF" style="stroke:#000000;stroke-width:1;"/><text fill="#000000" font-family="Verdana" font-size="13" lengthAdjust="spacing" textLength="125.0171" x="99" y="738.0598">Salvat .pkl / .joblib</text><text fill="#000000" font-family="Verdana" font-size="13" lengthAdjust="spacing" textLength="127.0039" x="99" y="753.8591">&#238;nc&#259;rcat &#238;n backend</text></g><!--link Data to LLM--><g class="link" data-entity-1="ent0002" data-entity-2="ent0005" data-link-type="dependency" data-source-line="32" id="lnk17"><path d="M636,107.04 C636,131.24 636,160.01 636,184.2" fill="none" id="Data-to-LLM" style="stroke:#000000;stroke-width:1;"/><polygon fill="#000000" points="636,189.2,640,180.2,636,184.2,632,180.2,636,189.2" style="stroke:#000000;stroke-width:1;stroke-linejoin:miter;stroke-miterlimit:10;"/></g><!--link Data to VLM--><g class="link" data-entity-1="ent0002" data-entity-2="ent0007" data-link-type="dependency" data-source-line="33" id="lnk18"><path d="M698.69,106.94 C722.85,119.02 750.51,133.42 775,147.6 C797.2,160.45 816.9814,173.0941 836.8314,186.3441" fill="none" id="Data-to-VLM" style="stroke:#000000;stroke-width:1;"/><polygon fill="#000000" points="840.99,189.12,835.7252,180.7964,836.8314,186.3441,831.2837,187.4503,840.99,189.12" style="stroke:#000000;stroke-width:1;stroke-linejoin:miter;stroke-miterlimit:10;"/></g><!--link Data to Feat--><g class="link" data-entity-1="ent0002" data-entity-2="ent0009" data-link-type="dependency" data-source-line="34" id="lnk19"><path d="M519.17,93.39 C452.38,104.76 367.7,122.4 295,147.6 C263.46,158.53 234.3953,172.535 207.6653,186.885" fill="none" id="Data-to-Feat" style="stroke:#000000;stroke-width:1;"/><polygon fill="#000000" points="203.26,189.25,213.0816,188.5173,207.6653,186.885,209.2976,181.4688,203.26,189.25" style="stroke:#000000;stroke-width:1;stroke-linejoin:miter;stroke-miterlimit:10;"/></g><!--link Feat to Models--><g class="link" data-entity-1="ent0009" data-entity-2="ent0010" data-link-type="dependency" data-source-line="35" id="lnk20"><path d="M149,251.53 C147.43,275.24 145.5619,303.431 143.8619,328.981" fill="none" id="Feat-to-Models" style="stroke:#000000;stroke-width:1;"/><polygon fill="#000000" points="143.53,333.97,148.1187,325.2554,143.8619,328.981,140.1363,324.7243,143.53,333.97" style="stroke:#000000;stroke-width:1;stroke-linejoin:miter;stroke-miterlimit:10;"/></g><!--link Models to Top5--><g class="link" data-entity-1="ent0010" data-entity-2="ent0011" data-link-type="dependency" data-source-line="36" id="lnk21"><path d="M144.24,411.95 C145.89,431.2 147.4322,449.2883 148.9822,467.3383" fill="none" id="Models-to-Top5" style="stroke:#000000;stroke-width:1;"/><polygon fill="#000000" points="149.41,472.32,152.6253,463.0108,148.9822,467.3383,144.6546,463.6952,149.41,472.32" style="stroke:#000000;stroke-width:1;stroke-linejoin:miter;stroke-miterlimit:10;"/></g><!--link Top5 to Ensemble--><g class="link" data-entity-1="ent0011" data-entity-2="ent0012" data-link-type="dependency" data-source-line="37" id="lnk22"><path d="M155.75,534.71 C158.04,553.13 160.3435,571.6482 162.6335,590.0782" fill="none" id="Top5-to-Ensemble" style="stroke:#000000;stroke-width:1;"/><polygon fill="#000000" points="163.25,595.04,166.1097,585.6155,162.6335,590.0782,158.1708,586.6019,163.25,595.04" style="stroke:#000000;stroke-width:1;stroke-linejoin:miter;stroke-miterlimit:10;"/></g><!--link Kaggle to LLM--><g class="link" data-entity-1="ent0014" data-entity-2="ent0005" data-link-type="dependency" data-source-line="39" id="lnk23"><path d="M1004.28,349.8 C988.05,335.32 964.93,317.48 941,308.2 C908.1,295.43 896.45,307.84 862,300.2 C809.57,288.57 757.1322,270.4066 713.4422,253.4766" fill="none" id="Kaggle-to-LLM" style="stroke:#000000;stroke-width:1;"/><polygon fill="#000000" points="708.78,251.67,715.7267,258.6517,713.4422,253.4766,718.6173,251.1921,708.78,251.67" style="stroke:#000000;stroke-width:1;stroke-linejoin:miter;stroke-miterlimit:10;"/><text fill="#000000" font-family="Verdana" font-size="13" lengthAdjust="spacing" textLength="71.481" x="863" y="297.2698">fine-tuning</text></g><!--link Kaggle to VLM--><g class="link" data-entity-1="ent0014" data-entity-2="ent0007" data-link-type="dependency" data-source-line="40" id="lnk24"><path d="M1006.03,349.84 C981.5,323.81 944.1793,284.1986 916.8193,255.1686" fill="none" id="Kaggle-to-VLM" style="stroke:#000000;stroke-width:1;"/><polygon fill="#000000" points="913.39,251.53,916.6519,260.823,916.8193,255.1686,922.4737,255.3361,913.39,251.53" style="stroke:#000000;stroke-width:1;stroke-linejoin:miter;stroke-miterlimit:10;"/><text fill="#000000" font-family="Verdana" font-size="13" lengthAdjust="spacing" textLength="71.481" x="957" y="297.2698">fine-tuning</text></g><!--link Kaggle to Ensemble--><g class="link" data-entity-1="ent0014" data-entity-2="ent0012" data-link-type="dependency" data-source-line="41" id="lnk25"><path d="M1023.67,396.45 C1016.62,435.07 996.31,513.67 944,550.49 C887.56,590.23 433.7653,613.8123 248.8353,621.8723" fill="none" id="Kaggle-to-Ensemble" style="stroke:#000000;stroke-width:1;"/><polygon fill="#000000" points="243.84,622.09,253.0056,625.6943,248.8353,621.8723,252.6573,617.7019,243.84,622.09" style="stroke:#000000;stroke-width:1;stroke-linejoin:miter;stroke-miterlimit:10;"/><text fill="#000000" font-family="Verdana" font-size="13" lengthAdjust="spacing" textLength="63.7749" x="1002.12" y="509.1598">antrenare</text></g><!--link LLM to HF--><g class="link" data-entity-1="ent0005" data-entity-2="ent0015" data-link-type="dependency" data-source-line="42" id="lnk26"><path d="M660.38,251.68 C675.34,268.34 695.84,288.04 718,300.2 C731.23,307.45 737.19,302.11 751,308.2 C775.37,318.93 796.2743,332.9211 814.4543,346.6911" fill="none" id="LLM-to-HF" style="stroke:#000000;stroke-width:1;"/><polygon fill="#000000" points="818.44,349.71,813.6808,341.0874,814.4543,346.6911,808.8505,347.4646,818.44,349.71" style="stroke:#000000;stroke-width:1;stroke-linejoin:miter;stroke-miterlimit:10;"/></g><!--link VLM to HF--><g class="link" data-entity-1="ent0007" data-entity-2="ent0015" data-link-type="dependency" data-source-line="43" id="lnk27"><path d="M877.2,251.53 C869.69,280.56 859.7533,318.9696 853.0133,344.9996" fill="none" id="VLM-to-HF" style="stroke:#000000;stroke-width:1;"/><polygon fill="#000000" points="851.76,349.84,857.8883,342.13,853.0133,344.9996,850.1437,340.1247,851.76,349.84" style="stroke:#000000;stroke-width:1;stroke-linejoin:miter;stroke-miterlimit:10;"/></g><!--link HF to Serve--><g class="link" data-entity-1="ent0015" data-entity-2="ent0016" data-link-type="dependency" data-source-line="44" id="lnk28"><path d="M846.35,396.48 C846.72,420.06 847.2113,451.9806 847.5813,475.4706" fill="none" id="HF-to-Serve" style="stroke:#000000;stroke-width:1;"/><polygon fill="#000000" points="847.66,480.47,851.5178,471.4081,847.5813,475.4706,843.5188,471.5341,847.66,480.47" style="stroke:#000000;stroke-width:1;stroke-linejoin:miter;stroke-miterlimit:10;"/></g><?plantuml-src VPJRRjD048Rl_HH34IXLxH3dW495aNAmcuW4KZj4I8IBZJrnbZYxrdhTLaLSzJ7w3hm4lUXZCRQRGq4GAUlTdPrlP_uP-vbUuGOXYHaNHhhc8c6ARM31WdMaP2R2deobWgiLrtXW3t79ibYxKcYVto3O3SCm4d9Y4S9HdsayWkTEmwsxVVXk0Fs-DAkjfWtEDQg0Fznn3jrERoxyRC4nq30qOLZyXr2frsfjgrwhjuw_0ak1QCpuSO3ty4R6bqmXu8v6rxckst1gs-l6JA-ccPPgBhmiHglBKWoXeZ32wvBh4mHLURgFcFY8QykphJvFDOzZw-8AXMKtktDn0XSZwNMWyi5jcg3ExDSbOJGQFmdiOy-3IXemaSUMo1iypiDgE2stjGqhXpQisSXg7tBLMRiapluWJXI6FA044OJKzxUvQ4MgJjTnjin63PR8TAOmdOjAWcefrOQ9Xpi66EDb5cUyfBjqgdInRTZ8aAn0qOOyf8AHgyV324tmPvu9dcjIiRHYKuMOcdDntZLXGDBapy_vC1vDJAXMgoLxdEFIaZwLYTM2bF219Z8mgiE6QReXp19AmXlx3lHcfICTRfLkCwcvYE0L-9hofocL3YFAAfMgEEg853UB69z8r15QOQ7uI_1HNN9Lz5xRRJbljWgzPr54kPvFFi6qMQ3AdT8woAA8RdDPW3385eLzu9QspcG8RipIDPo0e3TYNROEtLD4aVScMDQxeXLsYzdXeX0z7uhLeqpbezWfyi-7OhLBqNYC-H4Efx3a0YsT2Ghrq3Zxdt6BenDigvEHut8ZvJZRJmTkCIjJCwZR41PIK-50BlVl2dK3IoWp-nGqJpB58I1rU91BQTTgBo2GYgfke0ZpZlsRb0krnzHFGJ5gRodO1eM6jth5nVhTlzrt-W3uZ3u26gh9EgQUgNwJYvWlQF_NJn7Stwg0R3GjFcM4soD_0m00?></g></svg>