<svg xmlns="http://www.w3.org/2000/svg" xmlns:xlink="http://www.w3.org/1999/xlink" contentStyleType="text/css" data-diagram-type="DESCRIPTION" height="800px" preserveAspectRatio="none" style="width:1701px;height:800px;background:#FFFFFF;" version="1.1" viewBox="0 0 1701 800" width="1701px" zoomAndPan="magnify"><?plantuml 1.2026.5?><defs/><g><!--entity Student--><g class="entity" data-qualified-name="Student" data-source-line="11" id="ent0001"><ellipse cx="62.13" cy="207.03" fill="#E3F2FD" rx="8" ry="8" style="stroke:#000000;stroke-width:1;"/><path d="M62.13,215.03 L62.13,242.03 M49.13,223.03 L75.13,223.03 M62.13,242.03 L49.13,257.03 M62.13,242.03 L75.13,257.03" fill="none" style="stroke:#000000;stroke-width:1;"/><text fill="#000000" font-family="Verdana" font-size="12" lengthAdjust="spacing" textLength="25.1309" x="49.5646" y="271.0945">Elev</text></g><!--entity Kaggle--><g class="entity" data-qualified-name="Kaggle" data-source-line="12" id="ent0002"><rect fill="#F3E5F5" height="49.168" rx="2.5" ry="2.5" style="stroke:#000000;stroke-width:1;" width="164.9434" x="1118.59" y="607.24"/><text fill="#000000" font-family="Verdana" font-size="12" lengthAdjust="spacing" textLength="40.916" x="1128.59" y="629.3045">Kaggle</text><text fill="#000000" font-family="Verdana" font-size="12" lengthAdjust="spacing" textLength="144.9434" x="1128.59" y="643.8884">(GPU, antrenare offline)</text></g><!--entity P1--><g class="entity" data-qualified-name="P1" data-source-line="15" id="ent0003"><ellipse cx="595.3082" cy="73.8173" fill="#E8F5E9" rx="43.8382" ry="26.3473" style="stroke:#000000;stroke-width:1;"/><text fill="#000000" font-family="Verdana" font-size="12" lengthAdjust="spacing" textLength="14.8652" x="587.8756" y="62.1603">P1</text><text fill="#000000" font-family="Verdana" font-size="12" lengthAdjust="spacing" textLength="76.5293" x="557.0435" y="76.7443">Autentificare</text><text fill="#000000" font-family="Verdana" font-size="12" lengthAdjust="spacing" textLength="35.6133" x="577.5015" y="91.3282">(JWT)</text></g><!--entity P2--><g class="entity" data-qualified-name="P2" data-source-line="16" id="ent0004"><ellipse cx="382.2752" cy="371.8207" fill="#E8F5E9" rx="37.5752" ry="28.6607" style="stroke:#000000;stroke-width:1;"/><text fill="#000000" font-family="Verdana" font-size="12" lengthAdjust="spacing" textLength="14.8652" x="374.8425" y="357.8439">P2</text><text fill="#000000" font-family="Verdana" font-size="12" lengthAdjust="spacing" textLength="58.9512" x="352.7996" y="372.4279">Rezolvare</text><text fill="#000000" font-family="Verdana" font-size="12" lengthAdjust="spacing" textLength="47.3789" x="358.5857" y="387.0119">exerci&#539;ii</text></g><!--entity P3--><g class="entity" data-qualified-name="P3" data-source-line="17" id="ent0005"><ellipse cx="1201.0581" cy="381.8226" fill="#E8F5E9" rx="66.4181" ry="27.7126" style="stroke:#000000;stroke-width:1;"/><text fill="#000000" font-family="Verdana" font-size="12" lengthAdjust="spacing" textLength="14.8652" x="1193.6255" y="368.3643">P3</text><text fill="#000000" font-family="Verdana" font-size="12" lengthAdjust="spacing" textLength="112.2773" x="1144.9194" y="382.9483">Extragere features</text><text fill="#000000" font-family="Verdana" font-size="12" lengthAdjust="spacing" textLength="79.793" x="1161.1616" y="397.5323">(30 features)</text></g><!--entity P4--><g class="entity" data-qualified-name="P4" data-source-line="18" id="ent0006"><ellipse cx="1591.5727" cy="464.8176" fill="#E8F5E9" rx="96.2827" ry="30.3776" style="stroke:#000000;stroke-width:1;"/><text fill="#000000" font-family="Verdana" font-size="12" lengthAdjust="spacing" textLength="14.8652" x="1584.1401" y="448.611">P4</text><text fill="#000000" font-family="Verdana" font-size="12" lengthAdjust="spacing" textLength="82.7285" x="1550.2084" y="463.195">Predic&#539;ie not&#259;</text><text fill="#000000" font-family="Verdana" font-size="12" lengthAdjust="spacing" textLength="149.0742" x="1517.0356" y="477.779">(VotingRegressor Top-5)</text></g><!--entity P5--><g class="entity" data-qualified-name="P5" data-source-line="19" id="ent0007"><ellipse cx="799.0722" cy="194.82" fill="#E8F5E9" rx="64.6922" ry="30.42" style="stroke:#000000;stroke-width:1;"/><text fill="#000000" font-family="Verdana" font-size="12" lengthAdjust="spacing" textLength="14.8652" x="791.6396" y="178.6837">P5</text><text fill="#000000" font-family="Verdana" font-size="12" lengthAdjust="spacing" textLength="67.6172" x="765.2636" y="193.2677">Gamifica&#539;ie</text><text fill="#000000" font-family="Verdana" font-size="12" lengthAdjust="spacing" textLength="98.4375" x="749.8535" y="207.8517">(XP, streak, ligi)</text></g><!--entity P6--><g class="entity" data-qualified-name="P6" data-source-line="20" id="ent0008"><ellipse cx="799.0712" cy="689.8246" fill="#F3E5F5" rx="87.7612" ry="30.3846" style="stroke:#000000;stroke-width:1;"/><text fill="#000000" font-family="Verdana" font-size="12" lengthAdjust="spacing" textLength="14.8652" x="791.6386" y="673.6295">P6</text><text fill="#000000" font-family="Verdana" font-size="12" lengthAdjust="spacing" textLength="100.957" x="748.5927" y="688.2135">Antrenare model</text><text fill="#000000" font-family="Verdana" font-size="12" lengthAdjust="spacing" textLength="135.4219" x="731.3603" y="702.7974">(prezicere-note.ipynb)</text></g><!--entity D1--><g class="entity" data-qualified-name="D1" data-source-line="23" id="ent0009"><path d="M1161.61,83.03 C1161.61,73.03 1201.0651,73.03 1201.0651,73.03 C1201.0651,73.03 1240.5202,73.03 1240.5202,83.03 L1240.5202,106.614 C1240.5202,116.614 1201.0651,116.614 1201.0651,116.614 C1201.0651,116.614 1161.61,116.614 1161.61,106.614 L1161.61,83.03" fill="#FFF3E0" style="stroke:#000000;stroke-width:1;"/><path d="M1161.61,83.03 C1161.61,93.03 1201.0651,93.03 1201.0651,93.03 C1201.0651,93.03 1240.5202,93.03 1240.5202,83.03" fill="none" style="stroke:#000000;stroke-width:1;"/><text fill="#000000" font-family="Verdana" font-size="12" lengthAdjust="spacing" textLength="58.9102" x="1171.61" y="109.0945">D1: users</text></g><!--entity D2--><g class="entity" data-qualified-name="D2" data-source-line="24" id="ent0010"><path d="M11,524.03 C11,514.03 62.1299,514.03 62.1299,514.03 C62.1299,514.03 113.2598,514.03 113.2598,524.03 L113.2598,547.614 C113.2598,557.614 62.1299,557.614 62.1299,557.614 C62.1299,557.614 11,557.614 11,547.614 L11,524.03" fill="#FFF3E0" style="stroke:#000000;stroke-width:1;"/><path d="M11,524.03 C11,534.03 62.1299,534.03 62.1299,534.03 C62.1299,534.03 113.2598,534.03 113.2598,524.03" fill="none" style="stroke:#000000;stroke-width:1;"/><text fill="#000000" font-family="Verdana" font-size="12" lengthAdjust="spacing" textLength="82.2598" x="21" y="550.0945">D2: exercises</text></g><!--entity D3--><g class="entity" data-qualified-name="D3" data-source-line="25" id="ent0011"><path d="M748.83,365.03 C748.83,355.03 799.0722,355.03 799.0722,355.03 C799.0722,355.03 849.3144,355.03 849.3144,365.03 L849.3144,388.614 C849.3144,398.614 799.0722,398.614 799.0722,398.614 C799.0722,398.614 748.83,398.614 748.83,388.614 L748.83,365.03" fill="#FFF3E0" style="stroke:#000000;stroke-width:1;"/><path d="M748.83,365.03 C748.83,375.03 799.0722,375.03 799.0722,375.03 C799.0722,375.03 849.3144,375.03 849.3144,365.03" fill="none" style="stroke:#000000;stroke-width:1;"/><text fill="#000000" font-family="Verdana" font-size="12" lengthAdjust="spacing" textLength="80.4844" x="758.83" y="391.0945">D3: attempts</text></g><!--entity D4--><g class="entity" data-qualified-name="D4" data-source-line="26" id="ent0012"><path d="M1082.83,727.74 C1082.83,717.74 1201.0614,717.74 1201.0614,717.74 C1201.0614,717.74 1319.2929,717.74 1319.2929,727.74 L1319.2929,765.908 C1319.2929,775.908 1201.0614,775.908 1201.0614,775.908 C1201.0614,775.908 1082.83,775.908 1082.83,765.908 L1082.83,727.74" fill="#FFF3E0" style="stroke:#000000;stroke-width:1;"/><path d="M1082.83,727.74 C1082.83,737.74 1201.0614,737.74 1201.0614,737.74 C1201.0614,737.74 1319.2929,737.74 1319.2929,727.74" fill="none" style="stroke:#000000;stroke-width:1;"/><text fill="#000000" font-family="Verdana" font-size="12" lengthAdjust="spacing" textLength="194.4609" x="1092.83" y="753.8045">D4: grade_predictor_perfect.pkl</text><text fill="#000000" font-family="Verdana" font-size="12" lengthAdjust="spacing" textLength="216.4629" x="1092.83" y="768.3884">(model + feature_names + metrici)</text></g><!--entity D5--><g class="entity" data-qualified-name="D5" data-source-line="27" id="ent0013"><path d="M285.26,663.44 C285.26,653.44 382.2834,653.44 382.2834,653.44 C382.2834,653.44 479.3069,653.44 479.3069,663.44 L479.3069,716.192 C479.3069,726.192 382.2834,726.192 382.2834,726.192 C382.2834,726.192 285.26,726.192 285.26,716.192 L285.26,663.44" fill="#F3E5F5" style="stroke:#000000;stroke-width:1;"/><path d="M285.26,663.44 C285.26,673.44 382.2834,673.44 382.2834,673.44 C382.2834,673.44 479.3069,673.44 479.3069,663.44" fill="none" style="stroke:#000000;stroke-width:1;"/><text fill="#000000" font-family="Verdana" font-size="12" lengthAdjust="spacing" textLength="172.4297" x="295.26" y="689.5045">D5: synthetic_attempts.json</text><text fill="#000000" font-family="Verdana" font-size="12" lengthAdjust="spacing" textLength="137.4961" x="295.26" y="704.0884">+ student_grades.json</text><text fill="#000000" font-family="Verdana" font-size="12" lengthAdjust="spacing" textLength="174.0469" x="295.26" y="718.6724">(date sintetice de antrenare)</text></g><!--link Student to P1--><g class="link" data-entity-1="ent0001" data-entity-2="ent0003" data-link-type="dependency" data-source-line="30" id="lnk14"><path d="M76.49,220.11 C91.17,203.9 116.27,179.18 143.26,165.82 C281.68,97.31 463.1472,80.0786 546.2472,75.6086" fill="none" id="Student-to-P1" style="stroke:#000000;stroke-width:1;"/><polygon fill="#000000" points="551.24,75.34,542.0381,71.8292,546.2472,75.6086,542.4678,79.8176,551.24,75.34" style="stroke:#000000;stroke-width:1;stroke-linejoin:miter;stroke-miterlimit:10;"/><text fill="#000000" font-family="Verdana" font-size="12" lengthAdjust="spacing" textLength="66.4102" x="166.26" y="121.0145">creden&#539;iale</text></g><!--link P1 to Student--><g class="link" data-entity-1="ent0003" data-entity-2="ent0001" data-link-type="dependency" data-source-line="33" id="lnk17"><path d="M554.63,63.45 C470.26,43.88 270.42,11 143.26,99.82 C109.45,123.44 89.514,161.6307 77.324,192.9407" fill="none" id="P1-to-Student" style="stroke:#000000;stroke-width:1;"/><polygon fill="#000000" points="75.51,197.6,82.5027,190.6644,77.324,192.9407,75.0478,187.762,75.51,197.6" style="stroke:#000000;stroke-width:1;stroke-linejoin:miter;stroke-miterlimit:10;"/><text fill="#000000" font-family="Verdana" font-size="12" lengthAdjust="spacing" textLength="62.7891" x="168.26" y="50.0245">token JWT</text></g><!--link P1 to D1--><g class="link" data-entity-1="ent0003" data-entity-2="ent0009" data-link-type="dependency" data-source-line="31" id="lnk15"><path d="M639.21,70.55 C720.23,64.99 901.23,55.54 1052.83,68.82 C1089.93,72.07 1126.8065,78.8233 1156.3565,85.0233" fill="none" id="P1-to-D1" style="stroke:#000000;stroke-width:1;"/><polygon fill="#000000" points="1161.25,86.05,1153.2632,80.2872,1156.3565,85.0233,1151.6204,88.1167,1161.25,86.05" style="stroke:#000000;stroke-width:1;stroke-linejoin:miter;stroke-miterlimit:10;"/><text fill="#000000" font-family="Verdana" font-size="12" lengthAdjust="spacing" textLength="122.3379" x="738.07" y="59.1345">cont nou / verificare</text></g><!--link D1 to P1--><g class="link" data-entity-1="ent0009" data-entity-2="ent0003" data-link-type="dependency" data-source-line="32" id="lnk16"><path d="M1161.34,96.1 C1078.59,98.48 878.44,102.25 711.31,89.82 C686.88,88 664.6805,85.079 642.9005,81.689" fill="none" id="D1-to-P1" style="stroke:#000000;stroke-width:1;"/><polygon fill="#000000" points="637.96,80.92,646.2377,86.2566,642.9005,81.689,647.4681,78.3517,637.96,80.92" style="stroke:#000000;stroke-width:1;stroke-linejoin:miter;stroke-miterlimit:10;"/><text fill="#000000" font-family="Verdana" font-size="12" lengthAdjust="spacing" textLength="83.625" x="757.57" y="86.8845">date utilizator</text></g><!--link Student to P2--><g class="link" data-entity-1="ent0001" data-entity-2="ent0004" data-link-type="dependency" data-source-line="36" id="lnk18"><path d="M76.49,256.26 C90.63,276.19 114.83,305.77 143.26,321.82 C207.79,358.25 290.7174,367.9575 339.6274,370.6275" fill="none" id="Student-to-P2" style="stroke:#000000;stroke-width:1;"/><polygon fill="#000000" points="344.62,370.9,335.8514,366.4154,339.6274,370.6275,335.4153,374.4035,344.62,370.9" style="stroke:#000000;stroke-width:1;stroke-linejoin:miter;stroke-miterlimit:10;"/><text fill="#000000" font-family="Verdana" font-size="12" lengthAdjust="spacing" textLength="103.3945" x="147.76" y="318.8845">r&#259;spuns exerci&#539;iu</text></g><!--link D2 to P2--><g class="link" data-entity-1="ent0010" data-entity-2="ent0004" data-link-type="dependency" data-source-line="37" id="lnk19"><path d="M106.37,513.53 C171.61,479.9 289.1855,419.2905 346.1155,389.9505" fill="none" id="D2-to-P2" style="stroke:#000000;stroke-width:1;"/><polygon fill="#000000" points="350.56,387.66,340.7275,388.2274,346.1155,389.9505,344.3924,395.3386,350.56,387.66" style="stroke:#000000;stroke-width:1;stroke-linejoin:miter;stroke-miterlimit:10;"/><text fill="#000000" font-family="Verdana" font-size="12" lengthAdjust="spacing" textLength="87.1992" x="155.9407" y="421.1945">enun&#539;, solu&#539;ie,</text><text fill="#000000" font-family="Verdana" font-size="12" lengthAdjust="spacing" textLength="110.5605" x="144.26" y="435.7784">subiect, dificultate</text></g><!--link P2 to D3--><g class="link" data-entity-1="ent0004" data-entity-2="ent0011" data-link-type="dependency" data-source-line="38" id="lnk20"><path d="M416.37,384.71 C441.44,393.75 476.98,405.05 509.31,409.82 C584.93,420.97 605.59,420.31 681.31,409.82 C703.74,406.71 723.1391,401.8539 743.6491,395.5739" fill="none" id="P2-to-D3" style="stroke:#000000;stroke-width:1;"/><polygon fill="#000000" points="748.43,394.11,738.6533,392.9203,743.6491,395.5739,740.9955,400.5697,748.43,394.11" style="stroke:#000000;stroke-width:1;stroke-linejoin:miter;stroke-miterlimit:10;"/><text fill="#000000" font-family="Verdana" font-size="12" lengthAdjust="spacing" textLength="55.1367" x="567.8579" y="391.8845">&#238;ncercare</text><text fill="#000000" font-family="Verdana" font-size="12" lengthAdjust="spacing" textLength="146.2324" x="522.31" y="406.4684">(is_correct, time_spent)</text></g><!--link P2 to P5--><g class="link" data-entity-1="ent0004" data-entity-2="ent0007" data-link-type="dependency" data-source-line="39" id="lnk21"><path d="M420.27,371.19 C489.84,369.44 637.16,362.93 681.31,338.82 C728.9,312.83 762.0173,263.0394 780.7373,229.0594" fill="none" id="P2-to-P5" style="stroke:#000000;stroke-width:1;"/><polygon fill="#000000" points="783.15,224.68,775.3037,230.6328,780.7373,229.0594,782.3107,234.493,783.15,224.68" style="stroke:#000000;stroke-width:1;stroke-linejoin:miter;stroke-miterlimit:10;"/><text fill="#000000" font-family="Verdana" font-size="12" lengthAdjust="spacing" textLength="105.4805" x="542.81" y="335.8845">rezultat &#238;ncercare</text></g><!--link P5 to D1--><g class="link" data-entity-1="ent0007" data-entity-2="ent0009" data-link-type="dependency" data-source-line="40" id="lnk22"><path d="M858.51,182.32 C909.87,171.12 986.55,153.87 1052.83,136.82 C1089.77,127.32 1126.7652,116.6878 1156.3552,107.9378" fill="none" id="P5-to-D1" style="stroke:#000000;stroke-width:1;"/><polygon fill="#000000" points="1161.15,106.52,1151.3852,105.2363,1156.3552,107.9378,1153.6537,112.9079,1161.15,106.52" style="stroke:#000000;stroke-width:1;stroke-linejoin:miter;stroke-miterlimit:10;"/><text fill="#000000" font-family="Verdana" font-size="12" lengthAdjust="spacing" textLength="98.6133" x="935.83" y="133.8845">XP, nivel, streak</text></g><!--link P5 to Student--><g class="link" data-entity-1="ent0007" data-entity-2="ent0001" data-link-type="dependency" data-source-line="41" id="lnk23"><path d="M734.54,198.36 C573.52,207.35 161.5122,230.3317 81.5022,234.7917" fill="none" id="P5-to-Student" style="stroke:#000000;stroke-width:1;"/><polygon fill="#000000" points="76.51,235.07,85.7187,238.5629,81.5022,234.7917,85.2734,230.5753,76.51,235.07" style="stroke:#000000;stroke-width:1;stroke-linejoin:miter;stroke-miterlimit:10;"/><text fill="#000000" font-family="Verdana" font-size="12" lengthAdjust="spacing" textLength="143.0332" x="310.78" y="210.3345">recompense, clasament</text></g><!--link Student to P3--><g class="link" data-entity-1="ent0001" data-entity-2="ent0005" data-link-type="dependency" data-source-line="44" id="lnk24"><path d="M76.57,237.07 C163.5,245.21 655.23,292.39 1052.83,353.82 C1082.01,358.33 1109.3546,363.3721 1136.2146,368.6721" fill="none" id="Student-to-P3" style="stroke:#000000;stroke-width:1;"/><polygon fill="#000000" points="1141.12,369.64,1133.0646,363.9734,1136.2146,368.6721,1131.5159,371.8221,1141.12,369.64" style="stroke:#000000;stroke-width:1;stroke-linejoin:miter;stroke-miterlimit:10;"/><text fill="#000000" font-family="Verdana" font-size="12" lengthAdjust="spacing" textLength="94.0957" x="548.2963" y="265.1245">cerere predic&#539;ie</text><text fill="#000000" font-family="Verdana" font-size="12" lengthAdjust="spacing" textLength="170.0684" x="510.31" y="279.7084">(GET /api/ml/predict-grade)</text></g><!--link D3 to P3--><g class="link" data-entity-1="ent0011" data-entity-2="ent0005" data-link-type="dependency" data-source-line="45" id="lnk25"><path d="M849.52,377.44 C921.31,378.34 1049.5604,379.9374 1129.4804,380.9374" fill="none" id="D3-to-P3" style="stroke:#000000;stroke-width:1;"/><polygon fill="#000000" points="1134.48,381,1125.5308,376.8877,1129.4804,380.9374,1125.4307,384.8871,1134.48,381" style="stroke:#000000;stroke-width:1;stroke-linejoin:miter;stroke-miterlimit:10;"/><text fill="#000000" font-family="Verdana" font-size="12" lengthAdjust="spacing" textLength="118.3066" x="925.83" y="375.3645">istoricul &#238;ncerc&#259;rilor</text></g><!--link D2 to P3--><g class="link" data-entity-1="ent0010" data-entity-2="ent0005" data-link-type="dependency" data-source-line="46" id="lnk26"><path d="M113.66,540.69 C243.84,551.82 600.56,573.41 886.83,507.82 C988.24,484.58 1095.1403,435.2409 1153.9003,405.7809" fill="none" id="D2-to-P3" style="stroke:#000000;stroke-width:1;"/><polygon fill="#000000" points="1158.37,403.54,1148.5318,403.9979,1153.9003,405.7809,1152.1173,411.1494,1158.37,403.54" style="stroke:#000000;stroke-width:1;stroke-linejoin:miter;stroke-miterlimit:10;"/><text fill="#000000" font-family="Verdana" font-size="12" lengthAdjust="spacing" textLength="108.9141" x="541.2524" y="523.3845">metadate exerci&#539;ii</text><text fill="#000000" font-family="Verdana" font-size="12" lengthAdjust="spacing" textLength="160.7988" x="515.31" y="537.9684">(subiect, dificultate, tem&#259;)</text></g><!--link P3 to P4--><g class="link" data-entity-1="ent0005" data-entity-2="ent0006" data-link-type="dependency" data-source-line="47" id="lnk27"><path d="M1260.65,394.34 C1327.31,408.58 1431.6804,430.8751 1506.0404,446.7651" fill="none" id="P3-to-P4" style="stroke:#000000;stroke-width:1;"/><polygon fill="#000000" points="1510.93,447.81,1502.9646,442.0176,1506.0404,446.7651,1501.2928,449.8409,1510.93,447.81" style="stroke:#000000;stroke-width:1;stroke-linejoin:miter;stroke-miterlimit:10;"/><text fill="#000000" font-family="Verdana" font-size="12" lengthAdjust="spacing" textLength="114.5859" x="1350.29" y="410.5145">feature_vector[30]</text></g><!--link D4 to P4--><g class="link" data-entity-1="ent0012" data-entity-2="ent0006" data-link-type="dependency" data-source-line="48" id="lnk28"><path d="M1251.82,717.34 C1272.93,704.45 1297.62,688.86 1319.29,673.82 C1406.97,612.97 1501.1919,537.856 1551.9919,496.516" fill="none" id="D4-to-P4" style="stroke:#000000;stroke-width:1;"/><polygon fill="#000000" points="1555.87,493.36,1546.3646,495.9382,1551.9919,496.516,1551.4141,502.1432,1555.87,493.36" style="stroke:#000000;stroke-width:1;stroke-linejoin:miter;stroke-miterlimit:10;"/><text fill="#000000" font-family="Verdana" font-size="12" lengthAdjust="spacing" textLength="92.4199" x="1361.29" y="565.2545">model antrenat</text></g><!--link P4 to Student--><g class="link" data-entity-1="ent0006" data-entity-2="ent0001" data-link-type="dependency" data-source-line="49" id="lnk29"><path d="M1497.53,471.98 C1281.77,486.33 731.67,509.83 285.26,417.82 C219.73,404.31 195.21,409.99 143.26,367.82 C111.73,342.22 91.4492,305.2729 78.5192,275.6329" fill="none" id="P4-to-Student" style="stroke:#000000;stroke-width:1;"/><polygon fill="#000000" points="76.52,271.05,76.4523,280.8986,78.5192,275.6329,83.7849,277.6999,76.52,271.05" style="stroke:#000000;stroke-width:1;stroke-linejoin:miter;stroke-miterlimit:10;"/><text fill="#000000" font-family="Verdana" font-size="12" lengthAdjust="spacing" textLength="127.9043" x="735.2243" y="455.5845">nota prezis&#259;, interval</text><text fill="#000000" font-family="Verdana" font-size="12" lengthAdjust="spacing" textLength="130.2129" x="734.07" y="470.1684">de &#238;ncredere, insights</text></g><!--link D5 to P6--><g class="link" data-entity-1="ent0013" data-entity-2="ent0008" data-link-type="dependency" data-source-line="52" id="lnk30"><path d="M479.75,689.82 C549.64,689.82 638.35,689.82 705.97,689.82" fill="none" id="D5-to-P6" style="stroke:#000000;stroke-width:1;"/><polygon fill="#000000" points="710.97,689.82,701.97,685.82,705.97,689.82,701.97,693.82,710.97,689.82" style="stroke:#000000;stroke-width:1;stroke-linejoin:miter;stroke-miterlimit:10;"/><text fill="#000000" font-family="Verdana" font-size="12" lengthAdjust="spacing" textLength="69.1289" x="560.936" y="671.8845">150 elevi &#215;</text><text fill="#000000" font-family="Verdana" font-size="12" lengthAdjust="spacing" textLength="90.3809" x="550.31" y="686.4684">8.750 &#238;ncerc&#259;ri</text></g><!--link P6 to Kaggle--><g class="link" data-entity-1="ent0008" data-entity-2="ent0002" data-link-type="dependency" data-source-line="53" id="lnk31"><path d="M865.67,669.67 C882.24,665.18 900.08,660.86 916.83,657.82 C984.12,645.61 1056.5094,639.3063 1113.3694,635.8163" fill="none" id="P6-to-Kaggle" style="stroke:#000000;stroke-width:1;"/><polygon fill="#000000" points="1118.36,635.51,1109.1319,632.0689,1113.3694,635.8163,1109.622,640.0539,1118.36,635.51" style="stroke:#000000;stroke-width:1;stroke-linejoin:miter;stroke-miterlimit:10;"/><text fill="#000000" font-family="Verdana" font-size="12" lengthAdjust="spacing" textLength="130.4648" x="919.83" y="622.8845">11 modele candidate,</text><text fill="#000000" font-family="Verdana" font-size="12" lengthAdjust="spacing" textLength="82.0371" x="944.0439" y="637.4684">CV 5-fold &#215; 3</text></g><!--link Kaggle to P6--><g class="link" data-entity-1="ent0002" data-entity-2="ent0008" data-link-type="dependency" data-source-line="54" id="lnk32"><path d="M1156.58,656.77 C1128.09,671.65 1089.46,689.09 1052.83,696.82 C996.13,708.78 935.6756,707.0338 885.5956,702.0638" fill="none" id="Kaggle-to-P6" style="stroke:#000000;stroke-width:1;"/><polygon fill="#000000" points="880.62,701.57,889.181,706.4393,885.5956,702.0638,889.971,698.4784,880.62,701.57" style="stroke:#000000;stroke-width:1;stroke-linejoin:miter;stroke-miterlimit:10;"/><text fill="#000000" font-family="Verdana" font-size="12" lengthAdjust="spacing" textLength="107.6719" x="931.4657" y="678.8845">Top-5 dup&#259; RMSE</text><text fill="#000000" font-family="Verdana" font-size="12" lengthAdjust="spacing" textLength="114.9434" x="927.83" y="693.4684">&#8594; VotingRegressor</text></g><!--link P6 to D4--><g class="link" data-entity-1="ent0008" data-entity-2="ent0012" data-link-type="dependency" data-source-line="55" id="lnk33"><path d="M833.3,718.11 C855.4,735 885.94,754.86 916.83,763.82 C969.93,779.23 1025.9578,778.4737 1077.7078,772.0737" fill="none" id="P6-to-D4" style="stroke:#000000;stroke-width:1;"/><polygon fill="#000000" points="1082.67,771.46,1073.2471,768.5949,1077.7078,772.0737,1074.229,776.5344,1082.67,771.46" style="stroke:#000000;stroke-width:1;stroke-linejoin:miter;stroke-miterlimit:10;"/><text fill="#000000" font-family="Verdana" font-size="12" lengthAdjust="spacing" textLength="100.8223" x="934.6083" y="745.8845">artifact serializat</text><text fill="#000000" font-family="Verdana" font-size="12" lengthAdjust="spacing" textLength="134.3789" x="917.83" y="760.4684">(R&#178;=0.97, MAE=0.28)</text></g><?plantuml-src RLNHYjj657tNLzow3rqJssjRLh8nj916KY0bO7QtIQ0gPbQwzaujpOYPaRlnKy7G3oY5FlGV-j1FQFoGxyYNvCvOaiNMOB3bUy-zSy-SS_MLkSS2eSmP5vxUS54onGguO-bchMGbifSobmf-lUS6E_4CLwpAJIo5kU4xXCcq4wmqfapZzuzgV1rTnK7ql5k56NPtBZEEOpyQTp9PQgJwVq4_diQXb-FAW96W-FhUGCOLfePBuNdUD_3vpz_e0v4mt1psd_xcW0y6bS0wuhdAq8jotFQ0QRWnLOR2UBO84-iSeVS3MzDt8YvUBNuS01D6eM0AGQvMEHVOTxXZ4XtTZu8uwBHUA9cYRllLv41lCKd4YyfGBxxYATMZ1g_VtHwhBIQTn6aYhd4dywrBmWTKAQT9-35psidq4n4z6CNMICTR8JELGarr_N7xLDVtEwXP8XOACvvIKGGXYIZ2l9M6Y_KrhWcaYQ9RMGw36Zthe8D4l6A5cy7Y2Vb-CG1D9B7D07A-vZKew82UqkmjZuNCC2TSgN37KphwaCw08rv-47SrzkaPOaCivOvaIMAqIcePRbG5lN0ojs9KsXK99ztGT0v79ZNMuMatxC-16OD5QUgetutEvh1MBCDbwNWZ1IrBL2kIpAZSs57SIF2aONqfM86QdWiqYgSr8-6iMpEOW_uWo8w6fykcz-WNBKKYdX2VJfPBrxRv-yADhRam5kI8QDLPjmZE41VdrKEbE4tObLz3Nsq060w_8nd275AQ4GNTBSlHetzi87G1SZ_9fO9BsAAgotZXv0HrvwiCp_cE4KaDkcan9zTkK039_jpnL2DwE6d-x2cdL4aTzhgiX3xbLbuuFSLHL3G32LFcbTNf816wkkDqPGDQ6NHsMcTqMcznn8G-OJx-8qYEjJUvNgPIAGSmlC2bBka0_GQm2C2Ts9Nf83qAj8nPPmY-nRmnI1CzCK8DP46LDGuWpPacuT0sEiDEsLYMMSlYUMRi5DPHn66RxpPPT0kNhEINHNvPQtZefDNtQF8MoZNTcgMc6UYmLvnMRykiJI9DCtVHfrkY3kV89UAmEEo9ixh7ZE2DHRPeVVIJF_xP2sUdyD59jQoDjvWzuejcP-0sXpxi1s2zeBQCF4Xci8UsubLe0zg-7lHP7pnUwN1nNEVzXjJmU4sqX-Om2SQ0zBhWyF6lH5oDdj5pXnwFacnk_KAW_Cbn28IKYOnRgaXyBzz2C5p9FACgu7jrTjl4RLl8glAmX-itDr4YFl_-1ppQoKshq1B553cPtcP02u-iQXr7rt3ztx_VZaVFdmtWpOk8Vasl-juN?></g></svg>