<svg xmlns="http://www.w3.org/2000/svg" xmlns:xlink="http://www.w3.org/1999/xlink" contentStyleType="text/css" data-diagram-type="CLASS" height="570px" preserveAspectRatio="none" style="width:1161px;height:570px;background:#FFFFFF;" version="1.1" viewBox="0 0 1161 570" width="1161px" zoomAndPan="magnify"><?plantuml 1.2026.5?><defs/><g><!--class users--><g class="entity" data-qualified-name="users" data-source-line="6" id="ent0001"><rect fill="#FFFFFF" height="233.5918" rx="2.5" ry="2.5" style="stroke:#000000;stroke-width:1;" width="180.4746" x="557.05" y="33.87"/><ellipse cx="627.3537" cy="47.87" fill="#FFFFFF" rx="9" ry="9" style="stroke:#000000;stroke-width:1;"/><path d="M630.2873,52.37 L624.8381,52.37 L624.8381,43.622 L630.2873,43.622 L630.2873,45.1454 L626.5666,45.1454 L626.5666,47.0321 L629.9357,47.0321 L629.9357,48.5555 L626.5666,48.5555 L626.5666,50.8466 L630.2873,50.8466 Z " fill="#000000"/><text fill="#000000" font-family="Verdana" font-size="12" lengthAdjust="spacing" textLength="32.3672" x="644.8537" y="52.6425">users</text><line style="stroke:#000000;stroke-width:1;" x1="558.05" x2="736.5246" y1="61.87" y2="61.87"/><g data-visibility-modifier="IE_MANDATORY"><ellipse cx="568.05" cy="74.662" fill="#FFFFFF" rx="3" ry="3" style="stroke:#000000;stroke-width:1;"/></g><text fill="#000000" font-family="Verdana" font-size="12" lengthAdjust="spacing" textLength="83.1387" x="575.05" y="77.9345">_id : int &#171;PK&#187;</text><line style="stroke:#000000;stroke-width:1;" x1="558.05" x2="736.5246" y1="84.454" y2="84.454"/><text fill="#000000" font-family="Verdana" font-size="12" lengthAdjust="spacing" textLength="141.3516" x="563.05" y="100.5184">email : string &#171;unique&#187;</text><text fill="#000000" font-family="Verdana" font-size="12" lengthAdjust="spacing" textLength="168.4746" x="563.05" y="115.1024">username : string &#171;unique&#187;</text><text fill="#000000" font-family="Verdana" font-size="12" lengthAdjust="spacing" textLength="141.5156" x="563.05" y="129.6864">password_hash : string</text><text fill="#000000" font-family="Verdana" font-size="12" lengthAdjust="spacing" textLength="142.2363" x="563.05" y="144.2704">profile : string (M1/M2)</text><text fill="#000000" font-family="Verdana" font-size="12" lengthAdjust="spacing" textLength="44.0801" x="563.05" y="158.8544">xp : int</text><text fill="#000000" font-family="Verdana" font-size="12" lengthAdjust="spacing" textLength="57.4863" x="563.05" y="173.4384">level : int</text><text fill="#000000" font-family="Verdana" font-size="12" lengthAdjust="spacing" textLength="118.248" x="563.05" y="188.0223">current_streak : int</text><text fill="#000000" font-family="Verdana" font-size="12" lengthAdjust="spacing" textLength="100.2949" x="563.05" y="202.6063">best_streak : int</text><text fill="#000000" font-family="Verdana" font-size="12" lengthAdjust="spacing" textLength="118.0313" x="563.05" y="217.1903">streak_freezes : int</text><text fill="#000000" font-family="Verdana" font-size="12" lengthAdjust="spacing" textLength="140.1035" x="563.05" y="231.7743">last_activity : datetime</text><text fill="#000000" font-family="Verdana" font-size="12" lengthAdjust="spacing" textLength="131.9355" x="563.05" y="246.3583">created_at : datetime</text><text fill="#000000" font-family="Verdana" font-size="12" lengthAdjust="spacing" textLength="135.9609" x="563.05" y="260.9423">updated_at : datetime</text></g><!--class exercises--><g class="entity" data-qualified-name="exercises" data-source-line="23" id="ent0002"><rect fill="#FFFFFF" height="277.3438" rx="2.5" ry="2.5" style="stroke:#000000;stroke-width:1;" width="193.7695" x="75.4" y="12"/><ellipse cx="140.6764" cy="26" fill="#FFFFFF" rx="9" ry="9" style="stroke:#000000;stroke-width:1;"/><path d="M143.61,30.5 L138.1607,30.5 L138.1607,21.752 L143.61,21.752 L143.61,23.2754 L139.8893,23.2754 L139.8893,25.1621 L143.2584,25.1621 L143.2584,26.6855 L139.8893,26.6855 L139.8893,28.9766 L143.61,28.9766 Z " fill="#000000"/><text fill="#000000" font-family="Verdana" font-size="12" lengthAdjust="spacing" textLength="55.7168" x="158.1764" y="30.7725">exercises</text><line style="stroke:#000000;stroke-width:1;" x1="76.4" x2="268.1695" y1="40" y2="40"/><g data-visibility-modifier="IE_MANDATORY"><ellipse cx="86.4" cy="52.792" fill="#FFFFFF" rx="3" ry="3" style="stroke:#000000;stroke-width:1;"/></g><text fill="#000000" font-family="Verdana" font-size="12" lengthAdjust="spacing" textLength="83.1387" x="93.4" y="56.0645">_id : int &#171;PK&#187;</text><line style="stroke:#000000;stroke-width:1;" x1="76.4" x2="268.1695" y1="62.584" y2="62.584"/><text fill="#000000" font-family="Verdana" font-size="12" lengthAdjust="spacing" textLength="128.2559" x="81.4" y="78.6484">subject : int (1, 2, 3)</text><text fill="#000000" font-family="Verdana" font-size="12" lengthAdjust="spacing" textLength="77.3848" x="81.4" y="93.2324">topic : string</text><text fill="#000000" font-family="Verdana" font-size="12" lengthAdjust="spacing" textLength="131.9004" x="81.4" y="107.8164">exercise_type : string</text><text fill="#000000" font-family="Verdana" font-size="12" lengthAdjust="spacing" textLength="116.7949" x="81.4" y="122.4004">difficulty : int (1-5)</text><text fill="#000000" font-family="Verdana" font-size="12" lengthAdjust="spacing" textLength="181.7695" x="81.4" y="136.9844">profile : string (M1/M2/BOTH)</text><text fill="#000000" font-family="Verdana" font-size="12" lengthAdjust="spacing" textLength="99.7207" x="81.4" y="151.5684">question : string</text><text fill="#000000" font-family="Verdana" font-size="12" lengthAdjust="spacing" textLength="91.4941" x="81.4" y="166.1523">answer : string</text><text fill="#000000" font-family="Verdana" font-size="12" lengthAdjust="spacing" textLength="95.6719" x="81.4" y="180.7363">solution : string</text><text fill="#000000" font-family="Verdana" font-size="12" lengthAdjust="spacing" textLength="118.2598" x="81.4" y="195.3203">solution_steps : list</text><text fill="#000000" font-family="Verdana" font-size="12" lengthAdjust="spacing" textLength="106.2773" x="81.4" y="209.9043">hints : list[string]</text><text fill="#000000" font-family="Verdana" font-size="12" lengthAdjust="spacing" textLength="118.2773" x="81.4" y="224.4883">explanation : string</text><text fill="#000000" font-family="Verdana" font-size="12" lengthAdjust="spacing" textLength="94.7402" x="81.4" y="239.0723">formula : string</text><text fill="#000000" font-family="Verdana" font-size="12" lengthAdjust="spacing" textLength="77.8301" x="81.4" y="253.6563">latex : string</text><text fill="#000000" font-family="Verdana" font-size="12" lengthAdjust="spacing" textLength="56.0801" x="81.4" y="268.2402">year : int</text><text fill="#000000" font-family="Verdana" font-size="12" lengthAdjust="spacing" textLength="88.002" x="81.4" y="282.8242">source : string</text></g><!--class attempts--><g class="entity" data-qualified-name="attempts" data-source-line="43" id="ent0003"><rect fill="#FFFFFF" height="146.0879" rx="2.5" ry="2.5" style="stroke:#000000;stroke-width:1;" width="144.2637" x="245.16" y="387.22"/><ellipse cx="286.5711" cy="401.22" fill="#FFFFFF" rx="9" ry="9" style="stroke:#000000;stroke-width:1;"/><path d="M289.5047,405.72 L284.0555,405.72 L284.0555,396.972 L289.5047,396.972 L289.5047,398.4954 L285.784,398.4954 L285.784,400.3821 L289.1532,400.3821 L289.1532,401.9055 L285.784,401.9055 L285.784,404.1966 L289.5047,404.1966 Z " fill="#000000"/><text fill="#000000" font-family="Verdana" font-size="12" lengthAdjust="spacing" textLength="53.9414" x="304.0711" y="405.9925">attempts</text><line style="stroke:#000000;stroke-width:1;" x1="246.16" x2="388.4237" y1="415.22" y2="415.22"/><g data-visibility-modifier="IE_MANDATORY"><ellipse cx="256.16" cy="428.012" fill="#FFFFFF" rx="3" ry="3" style="stroke:#000000;stroke-width:1;"/></g><text fill="#000000" font-family="Verdana" font-size="12" lengthAdjust="spacing" textLength="83.1387" x="263.16" y="431.2845">_id : int &#171;PK&#187;</text><line style="stroke:#000000;stroke-width:1;" x1="246.16" x2="388.4237" y1="437.804" y2="437.804"/><text fill="#000000" font-family="Verdana" font-size="12" lengthAdjust="spacing" textLength="108.9141" x="251.16" y="453.8684">user_id : int &#171;FK&#187;</text><text fill="#000000" font-family="Verdana" font-size="12" lengthAdjust="spacing" textLength="132.2637" x="251.16" y="468.4524">exercise_id : int &#171;FK&#187;</text><text fill="#000000" font-family="Verdana" font-size="12" lengthAdjust="spacing" textLength="91.4941" x="251.16" y="483.0364">answer : string</text><text fill="#000000" font-family="Verdana" font-size="12" lengthAdjust="spacing" textLength="98.3027" x="251.16" y="497.6204">is_correct : bool</text><text fill="#000000" font-family="Verdana" font-size="12" lengthAdjust="spacing" textLength="97.1719" x="251.16" y="512.2044">time_spent : int</text><text fill="#000000" font-family="Verdana" font-size="12" lengthAdjust="spacing" textLength="131.9355" x="251.16" y="526.7884">created_at : datetime</text></g><!--class achievements--><g class="entity" data-qualified-name="achievements" data-source-line="54" id="ent0004"><rect fill="#FFFFFF" height="102.3359" rx="2.5" ry="2.5" style="stroke:#000000;stroke-width:1;" width="155.6367" x="990.47" y="409.09"/><ellipse cx="1008.3093" cy="423.09" fill="#FFFFFF" rx="9" ry="9" style="stroke:#000000;stroke-width:1;"/><path d="M1011.2429,427.59 L1005.7936,427.59 L1005.7936,418.842 L1011.2429,418.842 L1011.2429,420.3654 L1007.5221,420.3654 L1007.5221,422.2521 L1010.8913,422.2521 L1010.8913,423.7755 L1007.5221,423.7755 L1007.5221,426.0666 L1011.2429,426.0666 Z " fill="#000000"/><text fill="#000000" font-family="Verdana" font-size="12" lengthAdjust="spacing" textLength="116.8828" x="1021.3846" y="427.8625">user_achievements</text><line style="stroke:#000000;stroke-width:1;" x1="991.47" x2="1145.1067" y1="437.09" y2="437.09"/><g data-visibility-modifier="IE_MANDATORY"><ellipse cx="1001.47" cy="449.882" fill="#FFFFFF" rx="3" ry="3" style="stroke:#000000;stroke-width:1;"/></g><text fill="#000000" font-family="Verdana" font-size="12" lengthAdjust="spacing" textLength="119.2324" x="1008.47" y="453.1545">_id : ObjectId &#171;PK&#187;</text><line style="stroke:#000000;stroke-width:1;" x1="991.47" x2="1145.1067" y1="459.674" y2="459.674"/><text fill="#000000" font-family="Verdana" font-size="12" lengthAdjust="spacing" textLength="108.9141" x="996.47" y="475.7384">user_id : int &#171;FK&#187;</text><text fill="#000000" font-family="Verdana" font-size="12" lengthAdjust="spacing" textLength="143.6367" x="996.47" y="490.3224">achievement_id : string</text><text fill="#000000" font-family="Verdana" font-size="12" lengthAdjust="spacing" textLength="140.5957" x="996.47" y="504.9064">unlocked_at : datetime</text></g><!--class history--><g class="entity" data-qualified-name="history" data-source-line="62" id="ent0005"><rect fill="#FFFFFF" height="189.8398" rx="2.5" ry="2.5" style="stroke:#000000;stroke-width:1;" width="162.6563" x="431.96" y="365.34"/><ellipse cx="446.0604" cy="379.34" fill="#FFFFFF" rx="9" ry="9" style="stroke:#000000;stroke-width:1;"/><path d="M448.994,383.84 L443.5448,383.84 L443.5448,375.092 L448.994,375.092 L448.994,376.6154 L445.2733,376.6154 L445.2733,378.5021 L448.6424,378.5021 L448.6424,380.0255 L445.2733,380.0255 L445.2733,382.3166 L448.994,382.3166 Z " fill="#000000"/><text fill="#000000" font-family="Verdana" font-size="12" lengthAdjust="spacing" textLength="132.2109" x="458.3049" y="384.1125">user_exercise_history</text><line style="stroke:#000000;stroke-width:1;" x1="432.96" x2="593.6163" y1="393.34" y2="393.34"/><g data-visibility-modifier="IE_MANDATORY"><ellipse cx="442.96" cy="406.132" fill="#FFFFFF" rx="3" ry="3" style="stroke:#000000;stroke-width:1;"/></g><text fill="#000000" font-family="Verdana" font-size="12" lengthAdjust="spacing" textLength="119.2324" x="449.96" y="409.4045">_id : ObjectId &#171;PK&#187;</text><line style="stroke:#000000;stroke-width:1;" x1="432.96" x2="593.6163" y1="415.924" y2="415.924"/><text fill="#000000" font-family="Verdana" font-size="12" lengthAdjust="spacing" textLength="108.9141" x="437.96" y="431.9884">user_id : int &#171;FK&#187;</text><text fill="#000000" font-family="Verdana" font-size="12" lengthAdjust="spacing" textLength="132.2637" x="437.96" y="446.5724">exercise_id : int &#171;FK&#187;</text><text fill="#000000" font-family="Verdana" font-size="12" lengthAdjust="spacing" textLength="77.3848" x="437.96" y="461.1564">topic : string</text><text fill="#000000" font-family="Verdana" font-size="12" lengthAdjust="spacing" textLength="80.9707" x="437.96" y="475.7404">difficulty : int</text><text fill="#000000" font-family="Verdana" font-size="12" lengthAdjust="spacing" textLength="106.0195" x="437.96" y="490.3244">quality : int (1-4)</text><text fill="#000000" font-family="Verdana" font-size="12" lengthAdjust="spacing" textLength="87.3164" x="437.96" y="504.9084">repetition : int</text><text fill="#000000" font-family="Verdana" font-size="12" lengthAdjust="spacing" textLength="110.8125" x="437.96" y="519.4923">ease_factor : float</text><text fill="#000000" font-family="Verdana" font-size="12" lengthAdjust="spacing" textLength="141.123" x="437.96" y="534.0763">next_review : datetime</text><text fill="#000000" font-family="Verdana" font-size="12" lengthAdjust="spacing" textLength="150.6563" x="437.96" y="548.6603">last_reviewed : datetime</text></g><!--class leagues--><g class="entity" data-qualified-name="leagues" data-source-line="76" id="ent0006"><rect fill="#FFFFFF" height="116.9199" rx="2.5" ry="2.5" style="stroke:#000000;stroke-width:1;" width="143.2324" x="633.67" y="401.8"/><ellipse cx="678.4766" cy="415.8" fill="#FFFFFF" rx="9" ry="9" style="stroke:#000000;stroke-width:1;"/><path d="M681.4102,420.3 L675.961,420.3 L675.961,411.552 L681.4102,411.552 L681.4102,413.0754 L677.6895,413.0754 L677.6895,414.9621 L681.0587,414.9621 L681.0587,416.4855 L677.6895,416.4855 L677.6895,418.7766 L681.4102,418.7766 Z " fill="#000000"/><text fill="#000000" font-family="Verdana" font-size="12" lengthAdjust="spacing" textLength="46.1191" x="695.9766" y="420.5725">leagues</text><line style="stroke:#000000;stroke-width:1;" x1="634.67" x2="775.9024" y1="429.8" y2="429.8"/><g data-visibility-modifier="IE_MANDATORY"><ellipse cx="644.67" cy="442.592" fill="#FFFFFF" rx="3" ry="3" style="stroke:#000000;stroke-width:1;"/></g><text fill="#000000" font-family="Verdana" font-size="12" lengthAdjust="spacing" textLength="119.2324" x="651.67" y="445.8645">_id : ObjectId &#171;PK&#187;</text><line style="stroke:#000000;stroke-width:1;" x1="634.67" x2="775.9024" y1="452.384" y2="452.384"/><text fill="#000000" font-family="Verdana" font-size="12" lengthAdjust="spacing" textLength="108.9141" x="639.67" y="468.4484">user_id : int &#171;FK&#187;</text><text fill="#000000" font-family="Verdana" font-size="12" lengthAdjust="spacing" textLength="115.2363" x="639.67" y="483.0324">week_start : string</text><text fill="#000000" font-family="Verdana" font-size="12" lengthAdjust="spacing" textLength="88.2188" x="639.67" y="497.6164">league : string</text><text fill="#000000" font-family="Verdana" font-size="12" lengthAdjust="spacing" textLength="93.3223" x="639.67" y="512.2004">weekly_xp : int</text></g><!--class daily--><g class="entity" data-qualified-name="daily" data-source-line="85" id="ent0007"><rect fill="#FFFFFF" height="146.0879" rx="2.5" ry="2.5" style="stroke:#000000;stroke-width:1;" width="182.5762" x="12" y="387.22"/><ellipse cx="25" cy="401.22" fill="#FFFFFF" rx="9" ry="9" style="stroke:#000000;stroke-width:1;"/><path d="M27.9336,405.72 L22.4844,405.72 L22.4844,396.972 L27.9336,396.972 L27.9336,398.4954 L24.2129,398.4954 L24.2129,400.3821 L27.582,400.3821 L27.582,401.9055 L24.2129,401.9055 L24.2129,404.1966 L27.9336,404.1966 Z " fill="#000000"/><text fill="#000000" font-family="Verdana" font-size="12" lengthAdjust="spacing" textLength="154.5762" x="37" y="405.9925">daily_challenge_attempts</text><line style="stroke:#000000;stroke-width:1;" x1="13" x2="193.5762" y1="415.22" y2="415.22"/><g data-visibility-modifier="IE_MANDATORY"><ellipse cx="23" cy="428.012" fill="#FFFFFF" rx="3" ry="3" style="stroke:#000000;stroke-width:1;"/></g><text fill="#000000" font-family="Verdana" font-size="12" lengthAdjust="spacing" textLength="119.2324" x="30" y="431.2845">_id : ObjectId &#171;PK&#187;</text><line style="stroke:#000000;stroke-width:1;" x1="13" x2="193.5762" y1="437.804" y2="437.804"/><text fill="#000000" font-family="Verdana" font-size="12" lengthAdjust="spacing" textLength="108.9141" x="18" y="453.8684">user_id : int &#171;FK&#187;</text><text fill="#000000" font-family="Verdana" font-size="12" lengthAdjust="spacing" textLength="74.9121" x="18" y="468.4524">date : string</text><text fill="#000000" font-family="Verdana" font-size="12" lengthAdjust="spacing" textLength="132.2637" x="18" y="483.0364">exercise_id : int &#171;FK&#187;</text><text fill="#000000" font-family="Verdana" font-size="12" lengthAdjust="spacing" textLength="98.3027" x="18" y="497.6204">is_correct : bool</text><text fill="#000000" font-family="Verdana" font-size="12" lengthAdjust="spacing" textLength="118.2715" x="18" y="512.2044">attempt_count : int</text><text fill="#000000" font-family="Verdana" font-size="12" lengthAdjust="spacing" textLength="147.2227" x="18" y="526.7884">submitted_at : datetime</text></g><!--class chat--><g class="entity" data-qualified-name="chat" data-source-line="96" id="ent0008"><rect fill="#FFFFFF" height="131.5039" rx="2.5" ry="2.5" style="stroke:#000000;stroke-width:1;" width="143.4668" x="811.55" y="394.51"/><ellipse cx="842.8576" cy="408.51" fill="#FFFFFF" rx="9" ry="9" style="stroke:#000000;stroke-width:1;"/><path d="M845.7912,413.01 L840.342,413.01 L840.342,404.262 L845.7912,404.262 L845.7912,405.7854 L842.0705,405.7854 L842.0705,407.6721 L845.4396,407.6721 L845.4396,409.1955 L842.0705,409.1955 L842.0705,411.4866 L845.7912,411.4866 Z " fill="#000000"/><text fill="#000000" font-family="Verdana" font-size="12" lengthAdjust="spacing" textLength="74.7832" x="858.926" y="413.2825">chat_history</text><line style="stroke:#000000;stroke-width:1;" x1="812.55" x2="954.0168" y1="422.51" y2="422.51"/><g data-visibility-modifier="IE_MANDATORY"><ellipse cx="822.55" cy="435.302" fill="#FFFFFF" rx="3" ry="3" style="stroke:#000000;stroke-width:1;"/></g><text fill="#000000" font-family="Verdana" font-size="12" lengthAdjust="spacing" textLength="119.2324" x="829.55" y="438.5745">_id : ObjectId &#171;PK&#187;</text><line style="stroke:#000000;stroke-width:1;" x1="812.55" x2="954.0168" y1="445.094" y2="445.094"/><text fill="#000000" font-family="Verdana" font-size="12" lengthAdjust="spacing" textLength="108.9141" x="817.55" y="461.1584">user_id : int &#171;FK&#187;</text><text fill="#000000" font-family="Verdana" font-size="12" lengthAdjust="spacing" textLength="101.5078" x="817.55" y="475.7424">message : string</text><text fill="#000000" font-family="Verdana" font-size="12" lengthAdjust="spacing" textLength="102.627" x="817.55" y="490.3264">response : string</text><text fill="#000000" font-family="Verdana" font-size="12" lengthAdjust="spacing" textLength="83.4375" x="817.55" y="504.9104">intent : string</text><text fill="#000000" font-family="Verdana" font-size="12" lengthAdjust="spacing" textLength="131.4668" x="817.55" y="519.4944">timestamp : datetime</text></g><!--link users to attempts--><g class="link" data-entity-1="ent0001" data-entity-2="ent0003" data-link-type="crowfoot" data-source-line="106" id="lnk9"><path codeLine="106" d="M551.3248,255.0485 C522.3448,284.1485 494.92,309.48 462.29,335.34 C442.57,350.97 434.1,349.84 414.29,365.34 C405.8,371.98 410.6192,367.2508 402.2692,374.7408" fill="none" id="users-attempts" style="stroke:#000000;stroke-width:1;"/><line style="stroke:#000000;stroke-width:1;" x1="551.3132" x2="556.9817" y1="249.3917" y2="255.0368"/><line style="stroke:#000000;stroke-width:1;" x1="549.1962" x2="554.8648" y1="251.5174" y2="257.1625"/><line style="stroke:#000000;stroke-width:1;" x1="551.3248" x2="556.97" y1="255.0485" y2="249.38"/><line style="stroke:#000000;stroke-width:1;" x1="394.8252" x2="392.8764" y1="381.4181" y2="391.2264"/><line style="stroke:#000000;stroke-width:1;" x1="394.8252" x2="384.8636" y1="381.4181" y2="382.2936"/><line style="stroke:#000000;stroke-width:1;" x1="394.8252" x2="388.87" y1="381.4181" y2="386.76"/><ellipse cx="399.2916" cy="377.4117" fill="none" rx="4" ry="4" style="stroke:#000000;stroke-width:1;"/><text fill="#000000" font-family="Verdana" font-size="12" lengthAdjust="spacing" textLength="43.459" x="479.65" y="332.4045">rezolva</text></g><!--link users to achievements--><g class="link" data-entity-1="ent0001" data-entity-2="ent0004" data-link-type="crowfoot" data-source-line="107" id="lnk10"><path codeLine="107" d="M744.5849,208.7774 C811.6449,249.5674 897.22,304.88 972.29,365.34 C988.63,378.5 992.5272,381.3877 1007.3372,395.9777" fill="none" id="users-achievements" style="stroke:#000000;stroke-width:1;"/><line style="stroke:#000000;stroke-width:1;" x1="739.0887" x2="743.2462" y1="210.1162" y2="203.2813"/><line style="stroke:#000000;stroke-width:1;" x1="741.6518" x2="745.8092" y1="211.6752" y2="204.8403"/><line style="stroke:#000000;stroke-width:1;" x1="744.5849" x2="737.75" y1="208.7774" y2="204.62"/><line style="stroke:#000000;stroke-width:1;" x1="1014.461" x2="1024.3708" y1="402.9956" y2="404.3357"/><line style="stroke:#000000;stroke-width:1;" x1="1014.461" x2="1015.9492" y1="402.9956" y2="412.8843"/><line style="stroke:#000000;stroke-width:1;" x1="1014.461" x2="1020.16" y1="402.9956" y2="408.61"/><ellipse cx="1010.1867" cy="398.7849" fill="none" rx="4" ry="4" style="stroke:#000000;stroke-width:1;"/><text fill="#000000" font-family="Verdana" font-size="12" lengthAdjust="spacing" textLength="74.3906" x="931.47" y="332.4045">deblocheaza</text></g><!--link users to history--><g class="link" data-entity-1="ent0001" data-entity-2="ent0005" data-link-type="crowfoot" data-source-line="108" id="lnk11"><path codeLine="108" d="M593.4341,275.2939 C579.4241,307.4439 574.7896,318.0882 561.4096,348.7982" fill="none" id="users-history" style="stroke:#000000;stroke-width:1;"/><line style="stroke:#000000;stroke-width:1;" x1="591.3651" x2="598.699" y1="270.029" y2="273.2249"/><line style="stroke:#000000;stroke-width:1;" x1="590.1666" x2="597.5005" y1="272.7792" y2="275.9751"/><line style="stroke:#000000;stroke-width:1;" x1="593.4341" x2="596.63" y1="275.2939" y2="267.96"/><line style="stroke:#000000;stroke-width:1;" x1="557.4154" x2="559.7206" y1="357.9659" y2="367.6965"/><line style="stroke:#000000;stroke-width:1;" x1="557.4154" x2="548.7194" y1="357.9659" y2="362.9035"/><line style="stroke:#000000;stroke-width:1;" x1="557.4154" x2="554.22" y1="357.9659" y2="365.3"/><ellipse cx="559.8119" cy="352.4653" fill="none" rx="4" ry="4" style="stroke:#000000;stroke-width:1;"/><text fill="#000000" font-family="Verdana" font-size="12" lengthAdjust="spacing" textLength="81.4922" x="573.27" y="332.4045">progres SM-2</text></g><!--link users to daily--><g class="link" data-entity-1="ent0001" data-entity-2="ent0007" data-link-type="crowfoot" data-source-line="109" id="lnk12"><path codeLine="109" d="M549.0838,183.8362 C467.4638,212.5662 353.6,258.16 258.29,319.34 C228.54,338.43 212.1523,351.0233 186.9423,374.4633" fill="none" id="users-daily" style="stroke:#000000;stroke-width:1;"/><line style="stroke:#000000;stroke-width:1;" x1="551.5288" x2="554.185" y1="178.735" y2="186.2812"/><line style="stroke:#000000;stroke-width:1;" x1="548.699" x2="551.3552" y1="179.7311" y2="187.2773"/><line style="stroke:#000000;stroke-width:1;" x1="549.0838" x2="556.63" y1="183.8362" y2="181.18"/><line style="stroke:#000000;stroke-width:1;" x1="179.6188" x2="177.8456" y1="381.2726" y2="391.1141"/><line style="stroke:#000000;stroke-width:1;" x1="179.6188" x2="169.6744" y1="381.2726" y2="382.3259"/><line style="stroke:#000000;stroke-width:1;" x1="179.6188" x2="173.76" y1="381.2726" y2="386.72"/><ellipse cx="184.0129" cy="377.187" fill="none" rx="4" ry="4" style="stroke:#000000;stroke-width:1;"/><text fill="#000000" font-family="Verdana" font-size="12" lengthAdjust="spacing" textLength="101.4492" x="259.29" y="332.4045">provocare zilnica</text></g><!--link users to leagues--><g class="link" data-entity-1="ent0001" data-entity-2="ent0006" data-link-type="crowfoot" data-source-line="110" id="lnk13"><path codeLine="110" d="M670.7013,275.8217 C679.2913,321.4117 683.9512,346.1424 691.0412,383.7024" fill="none" id="users-leagues" style="stroke:#000000;stroke-width:1;"/><line style="stroke:#000000;stroke-width:1;" x1="666.0298" x2="673.8915" y1="272.6315" y2="271.1502"/><line style="stroke:#000000;stroke-width:1;" x1="666.5853" x2="674.447" y1="275.5796" y2="274.0983"/><line style="stroke:#000000;stroke-width:1;" x1="670.7013" x2="669.22" y1="275.8217" y2="267.96"/><line style="stroke:#000000;stroke-width:1;" x1="692.8961" x2="700.2759" y1="393.5288" y2="400.2771"/><line style="stroke:#000000;stroke-width:1;" x1="692.8961" x2="688.4841" y1="393.5288" y2="402.5029"/><line style="stroke:#000000;stroke-width:1;" x1="692.8961" x2="694.38" y1="393.5288" y2="401.39"/><ellipse cx="691.7832" cy="387.633" fill="none" rx="4" ry="4" style="stroke:#000000;stroke-width:1;"/><text fill="#000000" font-family="Verdana" font-size="12" lengthAdjust="spacing" textLength="63.0234" x="682.48" y="332.4045">competitie</text></g><!--link users to chat--><g class="link" data-entity-1="ent0001" data-entity-2="ent0008" data-link-type="crowfoot" data-source-line="111" id="lnk14"><path codeLine="111" d="M741.3796,274.3072 C774.1396,317.0072 794.2341,343.1883 822.3341,379.8183" fill="none" id="users-chat" style="stroke:#000000;stroke-width:1;"/><line style="stroke:#000000;stroke-width:1;" x1="735.7712" x2="742.1184" y1="273.5684" y2="268.6988"/><line style="stroke:#000000;stroke-width:1;" x1="737.5973" x2="743.9445" y1="275.9486" y2="271.079"/><line style="stroke:#000000;stroke-width:1;" x1="741.3796" x2="736.51" y1="274.3072" y2="267.96"/><line style="stroke:#000000;stroke-width:1;" x1="828.4207" x2="838.0506" y1="387.7526" y2="390.448"/><line style="stroke:#000000;stroke-width:1;" x1="828.4207" x2="828.5294" y1="387.7526" y2="397.752"/><line style="stroke:#000000;stroke-width:1;" x1="828.4207" x2="833.29" y1="387.7526" y2="394.1"/><ellipse cx="824.7687" cy="382.992" fill="none" rx="4" ry="4" style="stroke:#000000;stroke-width:1;"/><text fill="#000000" font-family="Verdana" font-size="12" lengthAdjust="spacing" textLength="69.1289" x="787.43" y="332.4045">conversatie</text></g><!--link exercises to attempts--><g class="link" data-entity-1="ent0002" data-entity-2="ent0003" data-link-type="crowfoot" data-source-line="112" id="lnk15"><path codeLine="112" d="M156.3844,297.5106 C158.6544,313.5006 161.91,321.2 169.29,335.34 C180.07,356 194.02,350.88 212.29,365.34 C223.03,373.84 220.4889,371.3198 231.2289,380.6298" fill="none" id="exercises-attempts" style="stroke:#000000;stroke-width:1;"/><line style="stroke:#000000;stroke-width:1;" x1="151.8619" x2="159.7825" y1="294.1125" y2="292.9881"/><line style="stroke:#000000;stroke-width:1;" x1="152.2836" x2="160.2042" y1="297.0827" y2="295.9583"/><line style="stroke:#000000;stroke-width:1;" x1="156.3844" x2="155.26" y1="297.5106" y2="289.59"/><line style="stroke:#000000;stroke-width:1;" x1="238.785" x2="248.7601" y1="387.1799" y2="387.8863"/><line style="stroke:#000000;stroke-width:1;" x1="238.785" x2="240.8999" y1="387.1799" y2="396.9537"/><line style="stroke:#000000;stroke-width:1;" x1="238.785" x2="244.83" y1="387.1799" y2="392.42"/><ellipse cx="234.2513" cy="383.2498" fill="none" rx="4" ry="4" style="stroke:#000000;stroke-width:1;"/><text fill="#000000" font-family="Verdana" font-size="12" lengthAdjust="spacing" textLength="51.6797" x="170.29" y="332.4045">exercitiu</text></g><!--link exercises to history--><g class="link" data-entity-1="ent0002" data-entity-2="ent0005" data-link-type="crowfoot" data-source-line="113" id="lnk16"><path codeLine="113" d="M275.6857,237.4592 C307.8257,264.6692 337.39,290.33 369.29,319.34 C389.79,337.99 398.5081,346.0294 418.6281,365.5094" fill="none" id="exercises-history" style="stroke:#000000;stroke-width:1;"/><line style="stroke:#000000;stroke-width:1;" x1="270.0483" x2="275.2174" y1="237.9274" y2="231.8217"/><line style="stroke:#000000;stroke-width:1;" x1="272.3379" x2="277.5071" y1="239.8659" y2="233.7602"/><line style="stroke:#000000;stroke-width:1;" x1="275.6857" x2="269.58" y1="237.4592" y2="232.29"/><line style="stroke:#000000;stroke-width:1;" x1="425.8125" x2="435.7335" y1="372.4653" y2="373.7194"/><line style="stroke:#000000;stroke-width:1;" x1="425.8125" x2="427.3865" y1="372.4653" y2="382.3406"/><line style="stroke:#000000;stroke-width:1;" x1="425.8125" x2="431.56" y1="372.4653" y2="378.03"/><ellipse cx="421.5018" cy="368.2918" fill="none" rx="4" ry="4" style="stroke:#000000;stroke-width:1;"/><text fill="#000000" font-family="Verdana" font-size="12" lengthAdjust="spacing" textLength="51.0996" x="386.32" y="332.4045">repetare</text></g><!--link exercises to daily--><g class="link" data-entity-1="ent0002" data-entity-2="ent0007" data-link-type="crowfoot" data-source-line="114" id="lnk17"><path codeLine="114" d="M75.8876,296.737 C71.6676,306.617 71.15,309.29 68.29,319.34 C62.08,341.13 59.9175,347.6378 65.8175,369.3878" fill="none" id="exercises-daily" style="stroke:#000000;stroke-width:1;"/><line style="stroke:#000000;stroke-width:1;" x1="73.7803" x2="81.1373" y1="291.4873" y2="294.6297"/><line style="stroke:#000000;stroke-width:1;" x1="72.6019" x2="79.9589" y1="294.2462" y2="297.3886"/><line style="stroke:#000000;stroke-width:1;" x1="75.8876" x2="79.03" y1="296.737" y2="289.38"/><line style="stroke:#000000;stroke-width:1;" x1="68.4356" x2="76.3207" y1="379.039" y2="385.1892"/><line style="stroke:#000000;stroke-width:1;" x1="68.4356" x2="64.7393" y1="379.039" y2="388.3308"/><line style="stroke:#000000;stroke-width:1;" x1="68.4356" x2="70.53" y1="379.039" y2="386.76"/><ellipse cx="66.8648" cy="373.2483" fill="none" rx="4" ry="4" style="stroke:#000000;stroke-width:1;"/><text fill="#000000" font-family="Verdana" font-size="12" lengthAdjust="spacing" textLength="59.9941" x="69.29" y="332.4045">provocare</text></g><?plantuml-src hLN9Rjim4BtxArYVaY964BUz144EBH2qA88KI6z58OobaSMQ8bKkjkKa_zuHAJcKeYm5x8kbUO-ZcJSBtza2IsIL02udPiLb1HfAje1qjTJAoUoB4agpJS4jHdY6EJXXhvIqjto7x6m-cKnGMcvhDdK6jPaoCCm_iRi9ezzxbl2CdJCkBRku-F7zyjARPpF_XoLmGQYnciib4PpaVnssfCQF18hpEK85ncoKpf82JB5d1KYhd8lewD7rsUdr_DY3sof4v5y4hb54xwdJcd9Aw1p2AW8MQ4QimP3a6d679lOBH8VKydKZppdBmABb9OQFq26BMG9sYBWg6q4U7dN6BUgK6mnQxz_UfBTnYp-OsXO_EZjXynFs8OXYLSNJleYTyyJM5VQXZESvJwaPwhspsQVZbwG__NppysjWK0MDvKhsNO8q6zHzcr72FMLsLge6LetcWfiWUa6XT8PVuSJlDXLgTWbFVULAbqv0toX8zstVL2FekEpAwJJI92eGM8jbPKDzkfStbQTf-1Y_wl1z8SR0CTsuIL95VUnhlL1AX19JAoMcea3ZVXzjnOV-O5CZ5vm6fIHZcrXa62HtuvliM_O_6KRk0XubuwHGwUhL4FSY5LHyfMiVPljyW0XVhC78y0mdfEry43oUcOzX8ZHMb5JRdHqPWRwMqmfHJNLpeI3O9Mvjed7DSJFS7dxf10YpPyGI24lNhe_s-G3oR11ND8-WxM2K_1VwjeOhwcI_XgFWCheGwYGjG0YKIqnwm-J10yJQgFBCfXkZZmzJ6nb1hZTFj6DBRb-SA4hFzhgqCHmWhnADWUKWDOscKj8Ch7Goh878reH95IohGTZXFh-_dytKtUD2EsTJZJibrZ0TCEBDGAmC5pI_1S9koEo6aqXqQImfKdPxFPiFMA7gWRDMAMXaEouaJuVkkcOcQghAC50uu7YbFK6koGoUyNY9ZYGPGClT22zAm4ymnJR2Ufh0TF8F?></g></svg>