<svg xmlns="http://www.w3.org/2000/svg" xmlns:xlink="http://www.w3.org/1999/xlink" contentStyleType="text/css" data-diagram-type="SEQUENCE" height="977px" preserveAspectRatio="none" style="width:1047px;height:977px;background:#FFFFFF;" version="1.1" viewBox="0 0 1047 977" width="1047px" zoomAndPan="magnify"><?plantuml 1.2026.5?><defs/><g><rect fill="#FFFFFF" height="347.3911" style="stroke:#000000;stroke-width:1;" width="1016.1982" x="15" y="471.1904"/><rect fill="#FFFFFF" height="136.9966" style="stroke:none;stroke-width:1;" width="1016.1982" x="15" y="681.585"/><g class="participant-lifeline" data-entity-uid="part1" data-qualified-name="User" data-source-line="6" id="part1-lifeline"><g><title>Elev</title><rect fill="#000000" fill-opacity="0.00000" height="813.3809" width="8" x="37.6125" y="81.7993"/><line style="stroke:#000000;stroke-width:1;stroke-dasharray:5,5;" x1="41" x2="41" y1="81.7993" y2="895.1802"/></g></g><g class="participant-lifeline" data-entity-uid="part2" data-qualified-name="FE" data-source-line="7" id="part2-lifeline"><g><title>Frontend</title><rect fill="#000000" fill-opacity="0.00000" height="813.3809" width="8" x="245.6438" y="81.7993"/><line style="stroke:#000000;stroke-width:1;stroke-dasharray:5,5;" x1="249.3823" x2="249.3823" y1="81.7993" y2="895.1802"/></g></g><g class="participant-lifeline" data-entity-uid="part3" data-qualified-name="API" data-source-line="8" id="part3-lifeline"><g><title>FastAPI</title><rect fill="#000000" fill-opacity="0.00000" height="813.3809" width="8" x="498.3118" y="81.7993"/><line style="stroke:#000000;stroke-width:1;stroke-dasharray:5,5;" x1="501.6836" x2="501.6836" y1="81.7993" y2="895.1802"/></g></g><g class="participant-lifeline" data-entity-uid="part4" data-qualified-name="DB" data-source-line="9" id="part4-lifeline"><g><title>MongoDB</title><rect fill="#000000" fill-opacity="0.00000" height="813.3809" width="8" x="645.5173" y="81.7993"/><line style="stroke:#000000;stroke-width:1;stroke-dasharray:5,5;" x1="648.5217" x2="648.5217" y1="81.7993" y2="895.1802"/></g></g><g class="participant-lifeline" data-entity-uid="part5" data-qualified-name="Gamif" data-source-line="10" id="part5-lifeline"><g><title>Gamifica.ie</title><rect fill="#000000" fill-opacity="0.00000" height="813.3809" width="8" x="812.3396" y="81.7993"/><line style="stroke:#000000;stroke-width:1;stroke-dasharray:5,5;" x1="815.7136" x2="815.7136" y1="81.7993" y2="895.1802"/></g></g><g class="participant-lifeline" data-entity-uid="part6" data-qualified-name="Adapt" data-source-line="11" id="part6-lifeline"><g><title>Adaptive</title><rect fill="#000000" fill-opacity="0.00000" height="813.3809" width="8" x="973.6877" y="81.7993"/><line style="stroke:#000000;stroke-width:1;stroke-dasharray:5,5;" x1="977.1772" x2="977.1772" y1="81.7993" y2="895.1802"/></g></g><g class="participant participant-head" data-entity-uid="part1" data-qualified-name="User" data-source-line="6" id="part1-head"><text fill="#000000" font-family="Verdana" font-size="13" lengthAdjust="spacing" textLength="27.2251" x="25" y="79.0698">Elev</text><ellipse cx="41.6125" cy="14" fill="#FFFFFF" rx="8" ry="8" style="stroke:#000000;stroke-width:1;"/><path d="M41.6125,22 L41.6125,49 M28.6125,30 L54.6125,30 M41.6125,49 L28.6125,64 M41.6125,49 L54.6125,64" fill="none" style="stroke:#000000;stroke-width:1;"/></g><g class="participant participant-tail" data-entity-uid="part1" data-qualified-name="User" data-source-line="6" id="part1-tail"><text fill="#000000" font-family="Verdana" font-size="13" lengthAdjust="spacing" textLength="27.2251" x="25" y="907.25">Elev</text><ellipse cx="41.6125" cy="918.9795" fill="#FFFFFF" rx="8" ry="8" style="stroke:#000000;stroke-width:1;"/><path d="M41.6125,926.9795 L41.6125,953.9795 M28.6125,934.9795 L54.6125,934.9795 M41.6125,953.9795 L28.6125,968.9795 M41.6125,953.9795 L54.6125,968.9795" fill="none" style="stroke:#000000;stroke-width:1;"/></g><g class="participant participant-head" data-entity-uid="part2" data-qualified-name="FE" data-source-line="7" id="part2-head"><rect fill="#FFFFFF" height="41.5986" rx="2.5" ry="2.5" style="stroke:#000000;stroke-width:1;" width="104.5229" x="197.3823" y="34.2007"/><text fill="#000000" font-family="Verdana" font-size="13" lengthAdjust="spacing" textLength="58.3286" x="220.4795" y="52.2705">Frontend</text><text fill="#000000" font-family="Verdana" font-size="13" lengthAdjust="spacing" textLength="94.5229" x="202.3823" y="68.0698">(React Native)</text></g><g class="participant participant-tail" data-entity-uid="part2" data-qualified-name="FE" data-source-line="7" id="part2-tail"><rect fill="#FFFFFF" height="41.5986" rx="2.5" ry="2.5" style="stroke:#000000;stroke-width:1;" width="104.5229" x="197.3823" y="899.1802"/><text fill="#000000" font-family="Verdana" font-size="13" lengthAdjust="spacing" textLength="58.3286" x="220.4795" y="917.25">Frontend</text><text fill="#000000" font-family="Verdana" font-size="13" lengthAdjust="spacing" textLength="94.5229" x="202.3823" y="933.0493">(React Native)</text></g><g class="participant participant-head" data-entity-uid="part3" data-qualified-name="API" data-source-line="8" id="part3-head"><rect fill="#FFFFFF" height="41.5986" rx="2.5" ry="2.5" style="stroke:#000000;stroke-width:1;" width="65.2563" x="469.6836" y="34.2007"/><text fill="#000000" font-family="Verdana" font-size="13" lengthAdjust="spacing" textLength="49.3721" x="477.6257" y="52.2705">FastAPI</text><text fill="#000000" font-family="Verdana" font-size="13" lengthAdjust="spacing" textLength="55.2563" x="474.6836" y="68.0698">Backend</text></g><g class="participant participant-tail" data-entity-uid="part3" data-qualified-name="API" data-source-line="8" id="part3-tail"><rect fill="#FFFFFF" height="41.5986" rx="2.5" ry="2.5" style="stroke:#000000;stroke-width:1;" width="65.2563" x="469.6836" y="899.1802"/><text fill="#000000" font-family="Verdana" font-size="13" lengthAdjust="spacing" textLength="49.3721" x="477.6257" y="917.25">FastAPI</text><text fill="#000000" font-family="Verdana" font-size="13" lengthAdjust="spacing" textLength="55.2563" x="474.6836" y="933.0493">Backend</text></g><g class="participant participant-head" data-entity-uid="part4" data-qualified-name="DB" data-source-line="9" id="part4-head"><text fill="#000000" font-family="Verdana" font-size="13" lengthAdjust="spacing" textLength="61.9912" x="615.5217" y="79.0698">MongoDB</text><path d="M631.5173,30 C631.5173,20 649.5173,20 649.5173,20 C649.5173,20 667.5173,20 667.5173,30 L667.5173,56 C667.5173,66 649.5173,66 649.5173,66 C649.5173,66 631.5173,66 631.5173,56 L631.5173,30" fill="#FFFFFF" style="stroke:#000000;stroke-width:1;"/><path d="M631.5173,30 C631.5173,40 649.5173,40 649.5173,40 C649.5173,40 667.5173,40 667.5173,30" fill="none" style="stroke:#000000;stroke-width:1;"/></g><g class="participant participant-tail" data-entity-uid="part4" data-qualified-name="DB" data-source-line="9" id="part4-tail"><text fill="#000000" font-family="Verdana" font-size="13" lengthAdjust="spacing" textLength="61.9912" x="615.5217" y="907.25">MongoDB</text><path d="M631.5173,919.9795 C631.5173,909.9795 649.5173,909.9795 649.5173,909.9795 C649.5173,909.9795 667.5173,909.9795 667.5173,919.9795 L667.5173,945.9795 C667.5173,955.9795 649.5173,955.9795 649.5173,955.9795 C649.5173,955.9795 631.5173,955.9795 631.5173,945.9795 L631.5173,919.9795" fill="#FFFFFF" style="stroke:#000000;stroke-width:1;"/><path d="M631.5173,919.9795 C631.5173,929.9795 649.5173,929.9795 649.5173,929.9795 C649.5173,929.9795 667.5173,929.9795 667.5173,919.9795" fill="none" style="stroke:#000000;stroke-width:1;"/></g><g class="participant participant-head" data-entity-uid="part5" data-qualified-name="Gamif" data-source-line="10" id="part5-head"><rect fill="#FFFFFF" height="41.5986" rx="2.5" ry="2.5" style="stroke:#000000;stroke-width:1;" width="83.252" x="774.7136" y="34.2007"/><text fill="#000000" font-family="Verdana" font-size="13" lengthAdjust="spacing" textLength="73.252" x="779.7136" y="52.2705">Gamifica&#539;ie</text><text fill="#000000" font-family="Verdana" font-size="13" lengthAdjust="spacing" textLength="47.9565" x="792.3613" y="68.0698">Service</text></g><g class="participant participant-tail" data-entity-uid="part5" data-qualified-name="Gamif" data-source-line="10" id="part5-tail"><rect fill="#FFFFFF" height="41.5986" rx="2.5" ry="2.5" style="stroke:#000000;stroke-width:1;" width="83.252" x="774.7136" y="899.1802"/><text fill="#000000" font-family="Verdana" font-size="13" lengthAdjust="spacing" textLength="73.252" x="779.7136" y="917.25">Gamifica&#539;ie</text><text fill="#000000" font-family="Verdana" font-size="13" lengthAdjust="spacing" textLength="47.9565" x="792.3613" y="933.0493">Service</text></g><g class="participant participant-head" data-entity-uid="part6" data-qualified-name="Adapt" data-source-line="11" id="part6-head"><rect fill="#FFFFFF" height="41.5986" rx="2.5" ry="2.5" style="stroke:#000000;stroke-width:1;" width="67.021" x="944.1772" y="34.2007"/><text fill="#000000" font-family="Verdana" font-size="13" lengthAdjust="spacing" textLength="57.021" x="949.1772" y="52.2705">Adaptive</text><text fill="#000000" font-family="Verdana" font-size="13" lengthAdjust="spacing" textLength="56.4561" x="949.4597" y="68.0698">Learning</text></g><g class="participant participant-tail" data-entity-uid="part6" data-qualified-name="Adapt" data-source-line="11" id="part6-tail"><rect fill="#FFFFFF" height="41.5986" rx="2.5" ry="2.5" style="stroke:#000000;stroke-width:1;" width="67.021" x="944.1772" y="899.1802"/><text fill="#000000" font-family="Verdana" font-size="13" lengthAdjust="spacing" textLength="57.021" x="949.1772" y="917.25">Adaptive</text><text fill="#000000" font-family="Verdana" font-size="13" lengthAdjust="spacing" textLength="56.4561" x="949.4597" y="933.0493">Learning</text></g><g class="message" data-entity-1="part1" data-entity-2="part2" data-source-line="13" id="msg1"><polygon fill="#000000" points="237.6438,109.5986,247.6438,113.5986,237.6438,117.5986,241.6438,113.5986" style="stroke:#000000;stroke-width:1;stroke-linejoin:miter;stroke-miterlimit:10;"/><line style="stroke:#000000;stroke-width:1;" x1="41.6125" x2="243.6438" y1="113.5986" y2="113.5986"/><text fill="#000000" font-family="Verdana" font-size="13" lengthAdjust="spacing" textLength="184.0313" x="48.6125" y="108.8691">Selecteaz&#259; Subiect (I/II/III)</text></g><g class="message" data-entity-1="part2" data-entity-2="part3" data-source-line="14" id="msg2"><polygon fill="#000000" points="490.3118,139.3979,500.3118,143.3979,490.3118,147.3979,494.3118,143.3979" style="stroke:#000000;stroke-width:1;stroke-linejoin:miter;stroke-miterlimit:10;"/><line style="stroke:#000000;stroke-width:1;" x1="249.6438" x2="496.3118" y1="143.3979" y2="143.3979"/><text fill="#000000" font-family="Verdana" font-size="13" lengthAdjust="spacing" textLength="195.73" x="256.6438" y="138.6685">GET /api/exercises?subject=1</text></g><g class="message" data-entity-1="part3" data-entity-2="part4" data-source-line="15" id="msg3"><polygon fill="#000000" points="637.5173,169.1973,647.5173,173.1973,637.5173,177.1973,641.5173,173.1973" style="stroke:#000000;stroke-width:1;stroke-linejoin:miter;stroke-miterlimit:10;"/><line style="stroke:#000000;stroke-width:1;" x1="502.3118" x2="643.5173" y1="173.1973" y2="173.1973"/><text fill="#000000" font-family="Verdana" font-size="13" lengthAdjust="spacing" textLength="118.7266" x="509.3118" y="168.4678">find({subject: 1})</text></g><g class="message" data-entity-1="part4" data-entity-2="part3" data-source-line="16" id="msg4"><polygon fill="#000000" points="513.3118,198.9966,503.3118,202.9966,513.3118,206.9966,509.3118,202.9966" style="stroke:#000000;stroke-width:1;stroke-linejoin:miter;stroke-miterlimit:10;"/><line style="stroke:#000000;stroke-width:1;stroke-dasharray:2,2;" x1="507.3118" x2="648.5173" y1="202.9966" y2="202.9966"/><text fill="#000000" font-family="Verdana" font-size="13" lengthAdjust="spacing" textLength="82.7354" x="519.3118" y="198.2671">lista exerci&#539;ii</text></g><g class="message" data-entity-1="part3" data-entity-2="part2" data-source-line="17" id="msg5"><polygon fill="#000000" points="260.6438,228.7959,250.6438,232.7959,260.6438,236.7959,256.6438,232.7959" style="stroke:#000000;stroke-width:1;stroke-linejoin:miter;stroke-miterlimit:10;"/><line style="stroke:#000000;stroke-width:1;stroke-dasharray:2,2;" x1="254.6438" x2="501.3118" y1="232.7959" y2="232.7959"/><text fill="#000000" font-family="Verdana" font-size="13" lengthAdjust="spacing" textLength="90.6509" x="266.6438" y="228.0664">JSON exerci&#539;ii</text></g><g class="message" data-entity-1="part2" data-entity-2="part1" data-source-line="18" id="msg6"><polygon fill="#000000" points="52.6125,258.5952,42.6125,262.5952,52.6125,266.5952,48.6125,262.5952" style="stroke:#000000;stroke-width:1;stroke-linejoin:miter;stroke-miterlimit:10;"/><line style="stroke:#000000;stroke-width:1;stroke-dasharray:2,2;" x1="46.6125" x2="248.6438" y1="262.5952" y2="262.5952"/><text fill="#000000" font-family="Verdana" font-size="13" lengthAdjust="spacing" textLength="114.5435" x="58.6125" y="257.8657">Afi&#537;eaz&#259; exerci&#539;iu</text></g><g class="message" data-entity-1="part1" data-entity-2="part2" data-source-line="20" id="msg7"><polygon fill="#000000" points="237.6438,288.3945,247.6438,292.3945,237.6438,296.3945,241.6438,292.3945" style="stroke:#000000;stroke-width:1;stroke-linejoin:miter;stroke-miterlimit:10;"/><line style="stroke:#000000;stroke-width:1;" x1="41.6125" x2="243.6438" y1="292.3945" y2="292.3945"/><text fill="#000000" font-family="Verdana" font-size="13" lengthAdjust="spacing" textLength="102.229" x="48.6125" y="287.665">Trimite r&#259;spuns</text></g><g class="message" data-entity-1="part2" data-entity-2="part3" data-source-line="21" id="msg8"><polygon fill="#000000" points="490.3118,333.9932,500.3118,337.9932,490.3118,341.9932,494.3118,337.9932" style="stroke:#000000;stroke-width:1;stroke-linejoin:miter;stroke-miterlimit:10;"/><line style="stroke:#000000;stroke-width:1;" x1="249.6438" x2="496.3118" y1="337.9932" y2="337.9932"/><text fill="#000000" font-family="Verdana" font-size="13" lengthAdjust="spacing" textLength="181.5176" x="256.6438" y="317.4644">POST /api/exercises/submit</text><text fill="#000000" font-family="Verdana" font-size="13" lengthAdjust="spacing" textLength="228.668" x="256.6438" y="333.2637">{exercise_id, answer, time_spent}</text></g><g class="message" data-entity-1="part3" data-entity-2="part3" data-source-line="22" id="msg9"><line style="stroke:#000000;stroke-width:1;" x1="502.3118" x2="544.3118" y1="383.5918" y2="383.5918"/><line style="stroke:#000000;stroke-width:1;" x1="544.3118" x2="544.3118" y1="383.5918" y2="396.5918"/><line style="stroke:#000000;stroke-width:1;" x1="503.3118" x2="544.3118" y1="396.5918" y2="396.5918"/><polygon fill="#000000" points="513.3118,392.5918,503.3118,396.5918,513.3118,400.5918,509.3118,396.5918" style="stroke:#000000;stroke-width:1;stroke-linejoin:miter;stroke-miterlimit:10;"/><text fill="#000000" font-family="Verdana" font-size="13" lengthAdjust="spacing" textLength="122.4209" x="509.3118" y="363.063">_answers_match()</text><text fill="#000000" font-family="Verdana" font-size="13" lengthAdjust="spacing" textLength="133.2056" x="509.3118" y="378.8623">normalizare r&#259;spuns</text></g><g class="message" data-entity-1="part3" data-entity-2="part4" data-source-line="23" id="msg10"><polygon fill="#000000" points="637.5173,422.3911,647.5173,426.3911,637.5173,430.3911,641.5173,426.3911" style="stroke:#000000;stroke-width:1;stroke-linejoin:miter;stroke-miterlimit:10;"/><line style="stroke:#000000;stroke-width:1;" x1="502.3118" x2="643.5173" y1="426.3911" y2="426.3911"/><text fill="#000000" font-family="Verdana" font-size="13" lengthAdjust="spacing" textLength="93.2153" x="509.3118" y="421.6616">insert attempt</text></g><g class="message" data-entity-1="part3" data-entity-2="part5" data-source-line="24" id="msg11"><polygon fill="#000000" points="804.3396,452.1904,814.3396,456.1904,804.3396,460.1904,808.3396,456.1904" style="stroke:#000000;stroke-width:1;stroke-linejoin:miter;stroke-miterlimit:10;"/><line style="stroke:#000000;stroke-width:1;" x1="502.3118" x2="810.3396" y1="456.1904" y2="456.1904"/><text fill="#000000" font-family="Verdana" font-size="13" lengthAdjust="spacing" textLength="149.0811" x="509.3118" y="451.4609">award_xp(user_id, xp)</text></g><path d="M15,471.1904 L79.0493,471.1904 L79.0493,478.9897 L69.0493,488.9897 L15,488.9897 L15,471.1904" fill="#FFFFFF" style="stroke:#000000;stroke-width:1;"/><rect fill="none" height="347.3911" style="stroke:#000000;stroke-width:1;" width="1016.1982" x="15" y="471.1904"/><text fill="#000000" font-family="Verdana" font-size="13" font-weight="700" lengthAdjust="spacing" textLength="19.0493" x="30" y="485.2603">alt</text><text fill="#000000" font-family="Verdana" font-size="13" font-weight="700" lengthAdjust="spacing" textLength="127.4609" x="94.0493" y="486.2603">[R&#259;spuns Corect]</text><g class="message" data-entity-1="part5" data-entity-2="part4" data-source-line="27" id="msg12"><polygon fill="#000000" points="660.5173,507.5884,650.5173,511.5884,660.5173,515.5884,656.5173,511.5884" style="stroke:#000000;stroke-width:1;stroke-linejoin:miter;stroke-miterlimit:10;"/><line style="stroke:#000000;stroke-width:1;" x1="654.5173" x2="815.3396" y1="511.5884" y2="511.5884"/><text fill="#000000" font-family="Verdana" font-size="13" lengthAdjust="spacing" textLength="142.8223" x="666.5173" y="506.8589">update user XP (+10)</text></g><g class="message" data-entity-1="part5" data-entity-2="part5" data-source-line="28" id="msg13"><line style="stroke:#000000;stroke-width:1;" x1="816.3396" x2="858.3396" y1="541.3877" y2="541.3877"/><line style="stroke:#000000;stroke-width:1;" x1="858.3396" x2="858.3396" y1="541.3877" y2="554.3877"/><line style="stroke:#000000;stroke-width:1;" x1="817.3396" x2="858.3396" y1="554.3877" y2="554.3877"/><polygon fill="#000000" points="827.3396,550.3877,817.3396,554.3877,827.3396,558.3877,823.3396,554.3877" style="stroke:#000000;stroke-width:1;stroke-linejoin:miter;stroke-miterlimit:10;"/><text fill="#000000" font-family="Verdana" font-size="13" lengthAdjust="spacing" textLength="147.3481" x="823.3396" y="536.6582">check_achievements()</text></g><g class="message" data-entity-1="part5" data-entity-2="part4" data-source-line="29" id="msg14"><polygon fill="#000000" points="660.5173,580.187,650.5173,584.187,660.5173,588.187,656.5173,584.187" style="stroke:#000000;stroke-width:1;stroke-linejoin:miter;stroke-miterlimit:10;"/><line style="stroke:#000000;stroke-width:1;" x1="654.5173" x2="815.3396" y1="584.187" y2="584.187"/><text fill="#000000" font-family="Verdana" font-size="13" lengthAdjust="spacing" textLength="96.6875" x="666.5173" y="579.4575">check level_up</text></g><g class="message" data-entity-1="part5" data-entity-2="part3" data-source-line="30" id="msg15"><polygon fill="#000000" points="513.3118,609.9863,503.3118,613.9863,513.3118,617.9863,509.3118,613.9863" style="stroke:#000000;stroke-width:1;stroke-linejoin:miter;stroke-miterlimit:10;"/><line style="stroke:#000000;stroke-width:1;stroke-dasharray:2,2;" x1="507.3118" x2="815.3396" y1="613.9863" y2="613.9863"/><text fill="#000000" font-family="Verdana" font-size="13" lengthAdjust="spacing" textLength="249.3042" x="519.3118" y="609.2568">{xp_earned, level_up, achievements}</text></g><g class="message" data-entity-1="part3" data-entity-2="part2" data-source-line="31" id="msg16"><polygon fill="#000000" points="260.6438,639.7856,250.6438,643.7856,260.6438,647.7856,256.6438,643.7856" style="stroke:#000000;stroke-width:1;stroke-linejoin:miter;stroke-miterlimit:10;"/><line style="stroke:#000000;stroke-width:1;stroke-dasharray:2,2;" x1="254.6438" x2="501.3118" y1="643.7856" y2="643.7856"/><text fill="#000000" font-family="Verdana" font-size="13" lengthAdjust="spacing" textLength="151.1123" x="266.6438" y="639.0562">{correct: true, xp: 10}</text></g><g class="message" data-entity-1="part2" data-entity-2="part1" data-source-line="32" id="msg17"><polygon fill="#000000" points="52.6125,669.585,42.6125,673.585,52.6125,677.585,48.6125,673.585" style="stroke:#000000;stroke-width:1;stroke-linejoin:miter;stroke-miterlimit:10;"/><line style="stroke:#000000;stroke-width:1;stroke-dasharray:2,2;" x1="46.6125" x2="248.6438" y1="673.585" y2="673.585"/><text fill="#000000" font-family="Verdana" font-size="13" lengthAdjust="spacing" textLength="133.8286" x="58.6125" y="668.8555">"Corect! &#127881; +10 XP"</text></g><line style="stroke:#000000;stroke-width:1;stroke-dasharray:2,2;" x1="15" x2="1031.1982" y1="682.585" y2="682.585"/><text fill="#000000" font-family="Verdana" font-size="13" font-weight="700" lengthAdjust="spacing" textLength="124.1792" x="20" y="695.6548">[R&#259;spuns Gre&#537;it]</text><g class="message" data-entity-1="part3" data-entity-2="part6" data-source-line="34" id="msg18"><polygon fill="#000000" points="965.6877,717.1836,975.6877,721.1836,965.6877,725.1836,969.6877,721.1836" style="stroke:#000000;stroke-width:1;stroke-linejoin:miter;stroke-miterlimit:10;"/><line style="stroke:#000000;stroke-width:1;" x1="502.3118" x2="971.6877" y1="721.1836" y2="721.1836"/><text fill="#000000" font-family="Verdana" font-size="13" lengthAdjust="spacing" textLength="202.2046" x="509.3118" y="716.4541">log_weak_topic(user_id, topic)</text></g><g class="message" data-entity-1="part6" data-entity-2="part4" data-source-line="35" id="msg19"><polygon fill="#000000" points="660.5173,746.9829,650.5173,750.9829,660.5173,754.9829,656.5173,750.9829" style="stroke:#000000;stroke-width:1;stroke-linejoin:miter;stroke-miterlimit:10;"/><line style="stroke:#000000;stroke-width:1;" x1="654.5173" x2="976.6877" y1="750.9829" y2="750.9829"/><text fill="#000000" font-family="Verdana" font-size="13" lengthAdjust="spacing" textLength="117.292" x="666.5173" y="746.2534">update topic stats</text></g><g class="message" data-entity-1="part3" data-entity-2="part2" data-source-line="36" id="msg20"><polygon fill="#000000" points="260.6438,776.7822,250.6438,780.7822,260.6438,784.7822,256.6438,780.7822" style="stroke:#000000;stroke-width:1;stroke-linejoin:miter;stroke-miterlimit:10;"/><line style="stroke:#000000;stroke-width:1;stroke-dasharray:2,2;" x1="254.6438" x2="501.3118" y1="780.7822" y2="780.7822"/><text fill="#000000" font-family="Verdana" font-size="13" lengthAdjust="spacing" textLength="199.9956" x="266.6438" y="776.0527">{correct: false, solution: "..."}</text></g><g class="message" data-entity-1="part2" data-entity-2="part1" data-source-line="37" id="msg21"><polygon fill="#000000" points="52.6125,806.5815,42.6125,810.5815,52.6125,814.5815,48.6125,810.5815" style="stroke:#000000;stroke-width:1;stroke-linejoin:miter;stroke-miterlimit:10;"/><line style="stroke:#000000;stroke-width:1;stroke-dasharray:2,2;" x1="46.6125" x2="248.6438" y1="810.5815" y2="810.5815"/><text fill="#000000" font-family="Verdana" font-size="13" lengthAdjust="spacing" textLength="175.5825" x="58.6125" y="805.8521">Afi&#537;eaz&#259; solu&#539;ia pas cu pas</text></g><g class="message" data-entity-1="part3" data-entity-2="part6" data-source-line="40" id="msg22"><polygon fill="#000000" points="965.6877,843.3809,975.6877,847.3809,965.6877,851.3809,969.6877,847.3809" style="stroke:#000000;stroke-width:1;stroke-linejoin:miter;stroke-miterlimit:10;"/><line style="stroke:#000000;stroke-width:1;" x1="502.3118" x2="971.6877" y1="847.3809" y2="847.3809"/><text fill="#000000" font-family="Verdana" font-size="13" lengthAdjust="spacing" textLength="181.873" x="509.3118" y="842.6514">update_recommendations()</text></g><g class="message" data-entity-1="part6" data-entity-2="part4" data-source-line="41" id="msg23"><polygon fill="#000000" points="660.5173,873.1802,650.5173,877.1802,660.5173,881.1802,656.5173,877.1802" style="stroke:#000000;stroke-width:1;stroke-linejoin:miter;stroke-miterlimit:10;"/><line style="stroke:#000000;stroke-width:1;" x1="654.5173" x2="976.6877" y1="877.1802" y2="877.1802"/><text fill="#000000" font-family="Verdana" font-size="13" lengthAdjust="spacing" textLength="184.8818" x="666.5173" y="872.4507">recalculare priorit&#259;&#539;i topicuri</text></g><?plantuml-src VLHDRnen4BtxLqmuWPg4eDuYDLN8bwZQD0gfr0FIQl0EC6NNjcmlH44vvTHBxr4F_JCvvEVq9tHsDn10KH4IikVDp7ipp-p42UK4BaCsAapPEFIOmn3rTEnjOT8JcraFymb7MekdDC8YY-VMn3xV4NJUAwLGHu4spZAQDG03V0labU0ZQtPe8ZJElIIGIGUcUKq2XqkCFADM1Jy_sm9ZYCTNlO7f2Xb9ga1oeLACECH0qFXYpTYUTgl8QNSp_G9p7h76vzzC0zCdFsDD5RAAR8AFKtGbau7vJEWDct7ThRnMgXG2UqV240wXJndfI7Ztz03zOiXoW6QltIk_lPOIZ225fa0lpcwWZOxRT4jUSw3mCHJ37vBneQDAY21Fkm8SiKcRYvVO8NJkMqhkzrQ5CWuHeQuYUhXENZBwrFzwkHuiAKYiOdq8noD-VgpfhZ35bgORpxai6FpJGt252HighhxsjsMqXQea3CnYUPLmkWjemfpyBaJEAGcEJBnVognB9JKY93b6FMcs1iPOdsF6T-ZNkg-FXeqGZO0nKYwxU0bLAvGepj6doQrh5eAgEDowbZWnYt3zKWrEh9UfAf1FdROiNJXn4a6P2j-leFckSz3QX2tRw0dfQO9wmZIJvs9YQBRUA5Z1GEnFMLAuTS1g0ejRbvGE8w6w1ChWrYhVLtaR2rvewttbZEWBAZMAHmvguEQo6xNO7VZxvzTF444YhA4eayUociU5f-T7ZgzjZcgVbpwpusHEE4sYTQnVXreTQyKrT6k4LHp4ep7yZ_q8XSWk19iLaQqHkllx-ustTAoPjaIBPH6SF4XTb3zA_WsKsk9UKqcaayrba7AG5kMUDXbB73DTPANXd6VhEJuzIFrQG-5P_GC0?></g></svg>