<svg xmlns="http://www.w3.org/2000/svg" xmlns:xlink="http://www.w3.org/1999/xlink" contentStyleType="text/css" data-diagram-type="DESCRIPTION" height="1248px" preserveAspectRatio="none" style="width:631px;height:1248px;background:#FFFFFF;" version="1.1" viewBox="0 0 631 1248" width="631px" zoomAndPan="magnify"><?plantuml 1.2026.5?><defs/><g><!--cluster SmartBAC--><g class="cluster" data-qualified-name="SmartBAC" data-source-line="11" id="ent0003"><rect fill="#FFFFFF" height="1127" rx="2.5" ry="2.5" style="stroke:#000000;stroke-width:1;" width="532.36" x="85.6125" y="12"/><text fill="#000000" font-family="Verdana" font-size="13" font-weight="700" lengthAdjust="spacing" textLength="73.4614" x="315.0618" y="27.0698">SmartBAC</text></g><!--entity UC1--><g class="entity" data-qualified-name="SmartBAC.UC1" data-source-line="12" id="ent0004"><ellipse cx="201.621" cy="69.9957" fill="#FFFFFF" rx="74.6185" ry="24.2757" style="stroke:#000000;stroke-width:1;"/><text fill="#000000" font-family="Verdana" font-size="13" lengthAdjust="spacing" textLength="82.9067" x="160.1676" y="64.9455">Autentificare</text><text fill="#000000" font-family="Verdana" font-size="13" lengthAdjust="spacing" textLength="106.3677" x="148.4372" y="80.7448">(Login/Register)</text></g><!--entity UC2--><g class="entity" data-qualified-name="SmartBAC.UC2" data-source-line="13" id="ent0005"><ellipse cx="201.6176" cy="153.9951" fill="#FFFFFF" rx="100.0051" ry="24.5451" style="stroke:#000000;stroke-width:1;"/><text fill="#000000" font-family="Verdana" font-size="13" lengthAdjust="spacing" textLength="119.7612" x="141.737" y="149.3442">Rezolvare exerci&#539;ii</text><text fill="#000000" font-family="Verdana" font-size="13" lengthAdjust="spacing" textLength="142.27" x="130.4826" y="165.1435">pe subiecte (I, II, III)</text></g><!--entity UC3--><g class="entity" data-qualified-name="SmartBAC.UC3" data-source-line="14" id="ent0006"><ellipse cx="201.6273" cy="237.0044" fill="#FFFFFF" rx="80.7448" ry="23.6044" style="stroke:#000000;stroke-width:1;"/><text fill="#000000" font-family="Verdana" font-size="13" lengthAdjust="spacing" textLength="70.3828" x="166.4359" y="230.9311">Vizualizare</text><text fill="#000000" font-family="Verdana" font-size="13" lengthAdjust="spacing" textLength="119.228" x="142.0133" y="246.7304">teorie matematic&#259;</text></g><!--entity UC4--><g class="entity" data-qualified-name="SmartBAC.UC4" data-source-line="15" id="ent0007"><ellipse cx="201.621" cy="312.9977" fill="#FFFFFF" rx="73.5885" ry="17.1177" style="stroke:#000000;stroke-width:1;"/><text fill="#000000" font-family="Verdana" font-size="13" lengthAdjust="spacing" textLength="117.0063" x="143.1179" y="317.3974">Chat cu tutorul AI</text></g><!--entity UC5--><g class="entity" data-qualified-name="SmartBAC.UC5" data-source-line="16" id="ent0008"><ellipse cx="201.6261" cy="389.9956" fill="#FFFFFF" rx="80.9336" ry="24.7256" style="stroke:#000000;stroke-width:1;"/><text fill="#000000" font-family="Verdana" font-size="13" lengthAdjust="spacing" textLength="113.3501" x="144.9511" y="387.3824">Scanare exerci&#539;iu</text><text fill="#000000" font-family="Verdana" font-size="13" lengthAdjust="spacing" textLength="99.8169" x="151.7177" y="403.1817">din poz&#259; (OCR)</text></g><!--entity UC6--><g class="entity" data-qualified-name="SmartBAC.UC6" data-source-line="17" id="ent0009"><ellipse cx="201.6235" cy="466.9962" fill="#FFFFFF" rx="75.2809" ry="17.4562" style="stroke:#000000;stroke-width:1;"/><text fill="#000000" font-family="Verdana" font-size="13" lengthAdjust="spacing" textLength="121.0688" x="141.089" y="471.3958">Predic&#539;ie not&#259; BAC</text></g><!--entity UC7--><g class="entity" data-qualified-name="SmartBAC.UC7" data-source-line="18" id="ent0010"><ellipse cx="201.6182" cy="542.9977" fill="#FFFFFF" rx="86.2056" ry="23.3577" style="stroke:#000000;stroke-width:1;"/><text fill="#000000" font-family="Verdana" font-size="13" lengthAdjust="spacing" textLength="129.1494" x="137.0435" y="542.4589">Vizualizare statistici</text><text fill="#000000" font-family="Verdana" font-size="13" lengthAdjust="spacing" textLength="64.6128" x="169.3118" y="558.2582">&#537;i progres</text></g><!--entity UC8--><g class="entity" data-qualified-name="SmartBAC.UC8" data-source-line="19" id="ent0011"><ellipse cx="201.6211" cy="625.9962" fill="#FFFFFF" rx="78.5786" ry="24.3162" style="stroke:#000000;stroke-width:1;"/><text fill="#000000" font-family="Verdana" font-size="13" lengthAdjust="spacing" textLength="88.4165" x="157.4129" y="621.0063">Flashcards cu</text><text fill="#000000" font-family="Verdana" font-size="13" lengthAdjust="spacing" textLength="112.0361" x="145.6031" y="636.8056">repetare spa&#539;iat&#259;</text></g><!--entity UC9--><g class="entity" data-qualified-name="SmartBAC.UC9" data-source-line="20" id="ent0012"><ellipse cx="201.6263" cy="701.0047" fill="#FFFFFF" rx="67.2237" ry="15.8447" style="stroke:#000000;stroke-width:1;"/><text fill="#000000" font-family="Verdana" font-size="13" lengthAdjust="spacing" textLength="101.2832" x="150.9847" y="705.4044">Daily Challenge</text></g><!--entity UC10--><g class="entity" data-qualified-name="SmartBAC.UC10" data-source-line="21" id="ent0013"><ellipse cx="201.6214" cy="775.9952" fill="#FFFFFF" rx="71.0489" ry="24.6452" style="stroke:#000000;stroke-width:1;"/><text fill="#000000" font-family="Verdana" font-size="13" lengthAdjust="spacing" textLength="85.7886" x="158.7271" y="771.491">Participare &#238;n</text><text fill="#000000" font-family="Verdana" font-size="13" lengthAdjust="spacing" textLength="99.3408" x="151.951" y="787.2903">ligi competitive</text></g><!--entity UC11--><g class="entity" data-qualified-name="SmartBAC.UC11" data-source-line="22" id="ent0014"><ellipse cx="201.6209" cy="860.0028" fill="#FFFFFF" rx="66.1984" ry="24.6028" style="stroke:#000000;stroke-width:1;"/><text fill="#000000" font-family="Verdana" font-size="13" lengthAdjust="spacing" textLength="92.4409" x="155.4005" y="857.5691">Plan de studiu</text><text fill="#000000" font-family="Verdana" font-size="13" lengthAdjust="spacing" textLength="78.9839" x="162.129" y="873.3684">personalizat</text></g><!--entity UC12--><g class="entity" data-qualified-name="SmartBAC.UC12" data-source-line="23" id="ent0015"><ellipse cx="201.625" cy="936.9965" fill="#FFFFFF" rx="75.4325" ry="17.4865" style="stroke:#000000;stroke-width:1;"/><text fill="#000000" font-family="Verdana" font-size="13" lengthAdjust="spacing" textLength="121.4307" x="140.9097" y="941.3962">Sesiune Pomodoro</text></g><!--entity UC13--><g class="entity" data-qualified-name="SmartBAC.UC13" data-source-line="24" id="ent0016"><ellipse cx="201.6192" cy="1014.004" fill="#FFFFFF" rx="63.6667" ry="24.284" style="stroke:#000000;stroke-width:1;"/><text fill="#000000" font-family="Verdana" font-size="13" lengthAdjust="spacing" textLength="70.3828" x="166.4278" y="1008.9662">Vizualizare</text><text fill="#000000" font-family="Verdana" font-size="13" lengthAdjust="spacing" textLength="90.0669" x="156.5858" y="1024.7655">achievements</text></g><!--entity UC14--><g class="entity" data-qualified-name="SmartBAC.UC14" data-source-line="25" id="ent0017"><ellipse cx="201.6214" cy="1098.0005" fill="#FFFFFF" rx="77.1488" ry="24.5805" style="stroke:#000000;stroke-width:1;"/><text fill="#000000" font-family="Verdana" font-size="13" lengthAdjust="spacing" textLength="92.2378" x="155.5025" y="1093.4015">Quick Practice</text><text fill="#000000" font-family="Verdana" font-size="13" lengthAdjust="spacing" textLength="108.5703" x="147.3362" y="1109.2008">(exerci&#539;ii rapide)</text></g><!--entity AI1--><g class="entity" data-qualified-name="SmartBAC.AI1" data-source-line="27" id="ent0018"><ellipse cx="513.7928" cy="390.0012" fill="#FFFFFF" rx="86.6203" ry="23.1912" style="stroke:#000000;stroke-width:1;"/><text fill="#000000" font-family="Verdana" font-size="13" lengthAdjust="spacing" textLength="130.8633" x="448.3612" y="389.7281">Rezolvare automat&#259;</text><text fill="#000000" font-family="Verdana" font-size="13" lengthAdjust="spacing" textLength="55.9863" x="485.7997" y="405.5274">exerci&#539;iu</text></g><!--entity AI2--><g class="entity" data-qualified-name="SmartBAC.AI2" data-source-line="28" id="ent0019"><ellipse cx="513.7935" cy="929.9969" fill="#FFFFFF" rx="82.631" ry="23.5369" style="stroke:#000000;stroke-width:1;"/><text fill="#000000" font-family="Verdana" font-size="13" lengthAdjust="spacing" textLength="122.5225" x="452.5323" y="929.1758">Generare explica&#539;ii</text><text fill="#000000" font-family="Verdana" font-size="13" lengthAdjust="spacing" textLength="69.5005" x="479.0433" y="944.9751">pas cu pas</text></g><!--entity AI3--><g class="entity" data-qualified-name="SmartBAC.AI3" data-source-line="29" id="ent0020"><ellipse cx="513.7919" cy="847.998" fill="#FFFFFF" rx="74.0193" ry="22.968" style="stroke:#000000;stroke-width:1;"/><text fill="#000000" font-family="Verdana" font-size="13" lengthAdjust="spacing" textLength="112.3853" x="457.5992" y="848.0865">Detectare puncte</text><text fill="#000000" font-family="Verdana" font-size="13" lengthAdjust="spacing" textLength="33.9917" x="496.796" y="863.8859">slabe</text></g><!--entity AI4--><g class="entity" data-qualified-name="SmartBAC.AI4" data-source-line="30" id="ent0021"><ellipse cx="513.7963" cy="1099.0043" fill="#FFFFFF" rx="78.6237" ry="24.3543" style="stroke:#000000;stroke-width:1;"/><text fill="#000000" font-family="Verdana" font-size="13" lengthAdjust="spacing" textLength="89.3242" x="469.1342" y="1094.0712">Recomandare</text><text fill="#000000" font-family="Verdana" font-size="13" lengthAdjust="spacing" textLength="111.9028" x="457.8449" y="1109.8705">exerci&#539;ii adaptiv&#259;</text></g><!--entity AI5--><g class="entity" data-qualified-name="SmartBAC.AI5" data-source-line="31" id="ent0022"><ellipse cx="513.795" cy="1014.0008" fill="#FFFFFF" rx="88.1725" ry="25.2508" style="stroke:#000000;stroke-width:1;"/><text fill="#000000" font-family="Verdana" font-size="13" lengthAdjust="spacing" textLength="120.9546" x="453.3177" y="1010.6323">Calculare predic&#539;ie</text><text fill="#000000" font-family="Verdana" font-size="13" lengthAdjust="spacing" textLength="118.9233" x="454.3334" y="1026.4316">not&#259; ensemble ML</text></g><!--entity Student--><g class="entity" data-qualified-name="Student" data-source-line="8" id="ent0001"><ellipse cx="24.6125" cy="566.6" fill="#FFFFFF" rx="8" ry="8" style="stroke:#000000;stroke-width:1;"/><path d="M24.6125,574.6 L24.6125,601.6 M11.6125,582.6 L37.6125,582.6 M24.6125,601.6 L11.6125,616.6 M24.6125,601.6 L37.6125,616.6" fill="none" style="stroke:#000000;stroke-width:1;"/><text fill="#000000" font-family="Verdana" font-size="13" lengthAdjust="spacing" textLength="27.2251" x="11" y="631.6698">Elev</text></g><!--entity AI--><g class="entity" data-qualified-name="AI" data-source-line="9" id="ent0002"><ellipse cx="201.616" cy="1166.6" fill="#FFFFFF" rx="8" ry="8" style="stroke:#000000;stroke-width:1;"/><path d="M201.616,1174.6 L201.616,1201.6 M188.616,1182.6 L214.616,1182.6 M201.616,1201.6 L188.616,1216.6 M201.616,1201.6 L214.616,1216.6" fill="none" style="stroke:#000000;stroke-width:1;"/><text fill="#000000" font-family="Verdana" font-size="13" lengthAdjust="spacing" textLength="63.667" x="169.7825" y="1231.6698">Sistem AI</text></g><!--link Student to UC1--><g class="link" data-entity-1="ent0001" data-entity-2="ent0004" data-link-type="dependency" data-source-line="34" id="lnk23"><path d="M27.3625,557.29 C32.6125,448.6 49.6125,146.28 77.6125,112 C91.1725,95.4 106.8126,86.7641 127.1526,80.6741" fill="none" id="Student-to-UC1" style="stroke:#000000;stroke-width:1;"/><polygon fill="#000000" points="131.9425,79.24,122.1734,77.9895,127.1526,80.6741,124.468,85.6534,131.9425,79.24" style="stroke:#000000;stroke-width:1;stroke-linejoin:miter;stroke-miterlimit:10;"/></g><!--link Student to UC2--><g class="link" data-entity-1="ent0001" data-entity-2="ent0005" data-link-type="dependency" data-source-line="35" id="lnk24"><path d="M25.6025,557.42 C26.3425,468.14 32.8225,250.74 77.6125,196 C88.1825,183.08 98.2763,175.9572 113.8963,169.7472" fill="none" id="Student-to-UC2" style="stroke:#000000;stroke-width:1;"/><polygon fill="#000000" points="118.5425,167.9,108.7015,167.508,113.8963,169.7472,111.657,174.942,118.5425,167.9" style="stroke:#000000;stroke-width:1;stroke-linejoin:miter;stroke-miterlimit:10;"/></g><!--link Student to UC3--><g class="link" data-entity-1="ent0001" data-entity-2="ent0006" data-link-type="dependency" data-source-line="36" id="lnk25"><path d="M27.0525,557.22 C30.6125,481.88 42.2925,319.47 77.6125,278 C90.5325,262.84 104.4601,254.7829 123.3801,248.7329" fill="none" id="Student-to-UC3" style="stroke:#000000;stroke-width:1;"/><polygon fill="#000000" points="128.1425,247.21,118.3519,246.1412,123.3801,248.7329,120.7885,253.7611,128.1425,247.21" style="stroke:#000000;stroke-width:1;stroke-linejoin:miter;stroke-miterlimit:10;"/></g><!--link Student to UC4--><g class="link" data-entity-1="ent0001" data-entity-2="ent0007" data-link-type="dependency" data-source-line="37" id="lnk26"><path d="M28.8925,557.23 C34.9125,495.29 49.7225,377.93 77.6125,348 C91.8425,332.73 107.3501,325.1659 127.4301,320.1759" fill="none" id="Student-to-UC4" style="stroke:#000000;stroke-width:1;"/><polygon fill="#000000" points="132.2825,318.97,122.5835,317.2586,127.4301,320.1759,124.5129,325.0225,132.2825,318.97" style="stroke:#000000;stroke-width:1;stroke-linejoin:miter;stroke-miterlimit:10;"/></g><!--link Student to UC5--><g class="link" data-entity-1="ent0001" data-entity-2="ent0008" data-link-type="dependency" data-source-line="38" id="lnk27"><path d="M28.1325,557.13 C32.5425,520.3 44.6125,465.74 77.6125,432 C91.7325,417.56 106.2683,409.6382 125.3683,403.4182" fill="none" id="Student-to-UC5" style="stroke:#000000;stroke-width:1;"/><polygon fill="#000000" points="130.1225,401.87,120.3263,400.8534,125.3683,403.4182,122.8035,408.4602,130.1225,401.87" style="stroke:#000000;stroke-width:1;stroke-linejoin:miter;stroke-miterlimit:10;"/></g><!--link Student to UC6--><g class="link" data-entity-1="ent0001" data-entity-2="ent0009" data-link-type="dependency" data-source-line="39" id="lnk28"><path d="M38.7925,557.33 C47.1525,538.17 59.7925,516.15 77.6125,502 C94.1225,488.88 110.4774,481.9148 130.6074,476.7848" fill="none" id="Student-to-UC6" style="stroke:#000000;stroke-width:1;"/><polygon fill="#000000" points="135.4525,475.55,125.7435,473.8964,130.6074,476.7848,127.7191,481.6487,135.4525,475.55" style="stroke:#000000;stroke-width:1;stroke-linejoin:miter;stroke-miterlimit:10;"/></g><!--link Student to UC7--><g class="link" data-entity-1="ent0001" data-entity-2="ent0010" data-link-type="dependency" data-source-line="40" id="lnk29"><path d="M38.9425,589.43 C47.3225,585.47 58.4325,580.53 68.6125,577 C89.6325,569.71 108.1639,564.4008 129.3339,559.0708" fill="none" id="Student-to-UC7" style="stroke:#000000;stroke-width:1;"/><polygon fill="#000000" points="134.1825,557.85,124.4783,556.1684,129.3339,559.0708,126.4315,563.9263,134.1825,557.85" style="stroke:#000000;stroke-width:1;stroke-linejoin:miter;stroke-miterlimit:10;"/></g><!--link Student to UC8--><g class="link" data-entity-1="ent0001" data-entity-2="ent0011" data-link-type="dependency" data-source-line="41" id="lnk30"><path d="M39.0525,598.3 C58.9825,601.72 92.8146,607.5144 127.3746,613.4444" fill="none" id="Student-to-UC8" style="stroke:#000000;stroke-width:1;"/><polygon fill="#000000" points="132.3025,614.29,124.1086,608.8256,127.3746,613.4444,122.7557,616.7104,132.3025,614.29" style="stroke:#000000;stroke-width:1;stroke-linejoin:miter;stroke-miterlimit:10;"/></g><!--link Student to UC9--><g class="link" data-entity-1="ent0001" data-entity-2="ent0012" data-link-type="dependency" data-source-line="42" id="lnk31"><path d="M39.0125,622.89 C47.9625,638.23 61.1125,656.62 77.6125,668 C96.3625,680.93 115.0519,687.7139 136.5319,692.4939" fill="none" id="Student-to-UC9" style="stroke:#000000;stroke-width:1;"/><polygon fill="#000000" points="141.4125,693.58,133.4963,687.7205,136.5319,692.4939,131.7586,695.5295,141.4125,693.58" style="stroke:#000000;stroke-width:1;stroke-linejoin:miter;stroke-miterlimit:10;"/></g><!--link Student to UC10--><g class="link" data-entity-1="ent0001" data-entity-2="ent0013" data-link-type="dependency" data-source-line="43" id="lnk32"><path d="M31.0425,634.88 C37.2725,665.63 50.4025,707.63 77.6125,734 C93.6525,749.55 110.8861,757.9378 131.8761,764.1178" fill="none" id="Student-to-UC10" style="stroke:#000000;stroke-width:1;"/><polygon fill="#000000" points="136.6725,765.53,129.1687,759.1509,131.8761,764.1178,126.9092,766.8252,136.6725,765.53" style="stroke:#000000;stroke-width:1;stroke-linejoin:miter;stroke-miterlimit:10;"/></g><!--link Student to UC11--><g class="link" data-entity-1="ent0001" data-entity-2="ent0014" data-link-type="dependency" data-source-line="44" id="lnk33"><path d="M30.1325,634.7 C37.4425,690.91 53.5025,791.37 77.6125,818 C93.4425,835.48 112.0141,844.3914 134.1741,850.3514" fill="none" id="Student-to-UC11" style="stroke:#000000;stroke-width:1;"/><polygon fill="#000000" points="139.0025,851.65,131.3503,845.4498,134.1741,850.3514,129.2725,853.1752,139.0025,851.65" style="stroke:#000000;stroke-width:1;stroke-linejoin:miter;stroke-miterlimit:10;"/></g><!--link Student to UC12--><g class="link" data-entity-1="ent0001" data-entity-2="ent0015" data-link-type="dependency" data-source-line="45" id="lnk34"><path d="M27.1725,634.87 C30.9125,708.22 42.8125,863.18 77.6125,902 C91.1725,917.13 105.9105,924.663 125.4805,929.703" fill="none" id="Student-to-UC12" style="stroke:#000000;stroke-width:1;"/><polygon fill="#000000" points="130.3225,930.95,122.6045,924.8318,125.4805,929.703,120.6093,932.579,130.3225,930.95" style="stroke:#000000;stroke-width:1;stroke-linejoin:miter;stroke-miterlimit:10;"/></g><!--link Student to UC13--><g class="link" data-entity-1="ent0001" data-entity-2="ent0016" data-link-type="dependency" data-source-line="46" id="lnk35"><path d="M25.9725,634.81 C27.5325,720.27 35.6825,921.16 77.6125,972 C93.1225,990.8 112.5827,1000.0038 135.5127,1005.7538" fill="none" id="Student-to-UC13" style="stroke:#000000;stroke-width:1;"/><polygon fill="#000000" points="140.3625,1006.97,132.6058,1000.901,135.5127,1005.7538,130.6599,1008.6608,140.3625,1006.97" style="stroke:#000000;stroke-width:1;stroke-linejoin:miter;stroke-miterlimit:10;"/></g><!--link Student to UC14--><g class="link" data-entity-1="ent0001" data-entity-2="ent0017" data-link-type="dependency" data-source-line="47" id="lnk36"><path d="M24.8525,634.76 C23.6825,733.57 25.8025,991.56 77.6125,1056 C90.6925,1072.27 105.606,1080.7819 125.416,1086.9119" fill="none" id="Student-to-UC14" style="stroke:#000000;stroke-width:1;"/><polygon fill="#000000" points="130.1925,1088.39,122.7772,1081.9083,125.416,1086.9119,120.4123,1089.5507,130.1925,1088.39" style="stroke:#000000;stroke-width:1;stroke-linejoin:miter;stroke-miterlimit:10;"/></g><!--link AI to AI1--><g class="link" data-entity-1="ent0002" data-entity-2="ent0018" data-link-type="dependency" data-source-line="49" id="lnk37"><path d="M233.9125,1184.95 C255.7225,1175.77 283.9625,1160.68 301.6225,1139 C328.5125,1105.98 306.0725,1082.07 331.6225,1048 C352.3325,1020.39 377.2825,1033.24 395.6225,1004 C442.4525,929.34 409.9525,894.72 425.6225,808 C452.9025,656.99 491.9576,481.7764 506.3276,418.3564" fill="none" id="AI-to-AI1" style="stroke:#000000;stroke-width:1;"/><polygon fill="#000000" points="507.4325,413.48,501.5426,421.3736,506.3276,418.3564,509.3448,423.1414,507.4325,413.48" style="stroke:#000000;stroke-width:1;stroke-linejoin:miter;stroke-miterlimit:10;"/></g><!--link AI to AI2--><g class="link" data-entity-1="ent0002" data-entity-2="ent0019" data-link-type="dependency" data-source-line="50" id="lnk38"><path d="M233.9025,1180.05 C285.6825,1153.41 384.6025,1101.35 395.6225,1087 C428.0525,1044.77 391.6425,1012 425.6225,971 C433.9525,960.96 440.8242,955.4737 452.5742,949.5737" fill="none" id="AI-to-AI2" style="stroke:#000000;stroke-width:1;"/><polygon fill="#000000" points="457.0425,947.33,447.2046,947.7939,452.5742,949.5737,450.7945,954.9433,457.0425,947.33" style="stroke:#000000;stroke-width:1;stroke-linejoin:miter;stroke-miterlimit:10;"/></g><!--link AI to AI3--><g class="link" data-entity-1="ent0002" data-entity-2="ent0020" data-link-type="dependency" data-source-line="51" id="lnk39"><path d="M233.8825,1183.06 C254.8525,1173.24 282.0925,1158.18 301.6225,1139 C320.1125,1120.84 313.8725,1107.88 331.6225,1089 C355.2625,1063.85 376.7325,1073.89 395.6225,1045 C434.2725,985.91 382.3025,944.75 425.6225,889 C434.1425,878.04 441.7858,872.0454 454.3358,866.0154" fill="none" id="AI-to-AI3" style="stroke:#000000;stroke-width:1;"/><polygon fill="#000000" points="458.8425,863.85,448.998,864.1423,454.3358,866.0154,452.4627,871.3532,458.8425,863.85" style="stroke:#000000;stroke-width:1;stroke-linejoin:miter;stroke-miterlimit:10;"/></g><!--link AI to AI4--><g class="link" data-entity-1="ent0002" data-entity-2="ent0021" data-link-type="dependency" data-source-line="52" id="lnk40"><path d="M233.6525,1196.47 C272.6025,1196.12 340.9225,1192.41 395.6225,1173 C428.7325,1161.25 458.1927,1141.8535 480.8327,1124.7535" fill="none" id="AI-to-AI4" style="stroke:#000000;stroke-width:1;"/><polygon fill="#000000" points="484.8225,1121.74,475.23,1123.9725,480.8327,1124.7535,480.0517,1130.3562,484.8225,1121.74" style="stroke:#000000;stroke-width:1;stroke-linejoin:miter;stroke-miterlimit:10;"/></g><!--link AI to AI5--><g class="link" data-entity-1="ent0002" data-entity-2="ent0022" data-link-type="dependency" data-source-line="53" id="lnk41"><path d="M233.7025,1193.04 C275.5625,1187.5 350.0325,1171.9 395.6225,1129 C420.8725,1105.24 401.9025,1082.28 425.6225,1057 C434.5125,1047.53 441.5123,1042.1779 453.1523,1036.0879" fill="none" id="AI-to-AI5" style="stroke:#000000;stroke-width:1;"/><polygon fill="#000000" points="457.5825,1033.77,447.7537,1034.398,453.1523,1036.0879,451.4624,1041.4864,457.5825,1033.77" style="stroke:#000000;stroke-width:1;stroke-linejoin:miter;stroke-miterlimit:10;"/></g><!--link UC4 to AI1--><g class="link" data-entity-1="ent0007" data-entity-2="ent0018" data-link-type="dependency" data-source-line="55" id="lnk42"><path d="M253.1425,325.54 C306.6125,338.82 386.2799,358.595 444.2699,372.995" fill="none" id="UC4-to-AI1" style="stroke:#000000;stroke-width:1;stroke-dasharray:7,7;"/><polygon fill="#000000" points="449.1225,374.2,441.3518,368.1489,444.2699,372.995,439.4238,375.9131,449.1225,374.2" style="stroke:#000000;stroke-width:1;stroke-linejoin:miter;stroke-miterlimit:10;"/><text fill="#000000" font-family="Verdana" font-size="13" lengthAdjust="spacing" textLength="62.9624" x="332.6225" y="343.9598">&#171;include&#187;</text></g><!--link UC4 to AI2--><g class="link" data-entity-1="ent0007" data-entity-2="ent0019" data-link-type="dependency" data-source-line="56" id="lnk43"><path d="M261.5425,323.24 C276.4225,328.42 291.1225,336.23 301.6225,348 C342.6025,393.94 387.2125,839.89 425.6225,888 C433.9025,898.37 440.9162,904.0726 452.8262,910.1326" fill="none" id="UC4-to-AI2" style="stroke:#000000;stroke-width:1;stroke-dasharray:7,7;"/><polygon fill="#000000" points="457.2825,912.4,451.0751,904.7536,452.8262,910.1326,447.4472,911.8837,457.2825,912.4" style="stroke:#000000;stroke-width:1;stroke-linejoin:miter;stroke-miterlimit:10;"/><text fill="#000000" font-family="Verdana" font-size="13" lengthAdjust="spacing" textLength="62.9624" x="332.6225" y="447.9998">&#171;include&#187;</text></g><!--link UC5 to AI1--><g class="link" data-entity-1="ent0008" data-entity-2="ent0018" data-link-type="dependency" data-source-line="57" id="lnk44"><path d="M282.9025,390 C327.0525,390 376.8525,390 421.8725,390" fill="none" id="UC5-to-AI1" style="stroke:#000000;stroke-width:1;stroke-dasharray:7,7;"/><polygon fill="#000000" points="426.8725,390,417.8725,386,421.8725,390,417.8725,394,426.8725,390" style="stroke:#000000;stroke-width:1;stroke-linejoin:miter;stroke-miterlimit:10;"/><text fill="#000000" font-family="Verdana" font-size="13" lengthAdjust="spacing" textLength="62.9624" x="332.6225" y="387.0698">&#171;include&#187;</text></g><!--link UC6 to AI5--><g class="link" data-entity-1="ent0009" data-entity-2="ent0022" data-link-type="dependency" data-source-line="58" id="lnk45"><path d="M264.5225,476.91 C278.7525,482.1 292.4025,490 301.6225,502 C352.9625,568.82 295.7025,803.78 331.6225,880 C344.0125,906.3 401.8525,954.26 425.6225,971 C437.2125,979.16 446.1027,984.3794 458.8327,990.6894" fill="none" id="UC6-to-AI5" style="stroke:#000000;stroke-width:1;stroke-dasharray:7,7;"/><polygon fill="#000000" points="463.3125,992.91,457.0253,985.3291,458.8327,990.6894,453.4724,992.4969,463.3125,992.91" style="stroke:#000000;stroke-width:1;stroke-linejoin:miter;stroke-miterlimit:10;"/><text fill="#000000" font-family="Verdana" font-size="13" lengthAdjust="spacing" textLength="62.9624" x="332.6225" y="877.0698">&#171;include&#187;</text></g><!--link UC11 to AI3--><g class="link" data-entity-1="ent0014" data-entity-2="ent0020" data-link-type="dependency" data-source-line="59" id="lnk46"><path d="M267.6425,857.48 C318.0025,855.54 382.7563,853.0332 434.9863,851.0132" fill="none" id="UC11-to-AI3" style="stroke:#000000;stroke-width:1;stroke-dasharray:7,7;"/><polygon fill="#000000" points="439.9825,850.82,430.8347,847.1708,434.9863,851.0132,431.1439,855.1648,439.9825,850.82" style="stroke:#000000;stroke-width:1;stroke-linejoin:miter;stroke-miterlimit:10;"/><text fill="#000000" font-family="Verdana" font-size="13" lengthAdjust="spacing" textLength="62.9624" x="332.6225" y="849.6398">&#171;include&#187;</text></g><!--link UC11 to AI4--><g class="link" data-entity-1="ent0014" data-entity-2="ent0021" data-link-type="dependency" data-source-line="60" id="lnk47"><path d="M256.1525,874.23 C272.3225,880.61 289.0925,889.58 301.6225,902 C325.3725,925.54 312.1925,943.78 331.6225,971 C364.5225,1017.09 378.7325,1025.26 425.6225,1057 C438.0025,1065.38 447.7994,1070.8578 461.1994,1077.2478" fill="none" id="UC11-to-AI4" style="stroke:#000000;stroke-width:1;stroke-dasharray:7,7;"/><polygon fill="#000000" points="465.7125,1079.4,459.3107,1071.9156,461.1994,1077.2478,455.8672,1079.1366,465.7125,1079.4" style="stroke:#000000;stroke-width:1;stroke-linejoin:miter;stroke-miterlimit:10;"/><text fill="#000000" font-family="Verdana" font-size="13" lengthAdjust="spacing" textLength="62.9624" x="332.6225" y="968.0698">&#171;include&#187;</text></g><!--link UC2 to AI3--><g class="link" data-entity-1="ent0005" data-entity-2="ent0020" data-link-type="dependency" data-source-line="61" id="lnk48"><path d="M263.2925,173.75 C276.6725,179.69 290.2425,187.07 301.6225,196 C356.5825,239.14 366.4925,258.5 395.6225,322 C417.2425,369.14 488.3521,724.3751 507.2521,819.9051" fill="none" id="UC2-to-AI3" style="stroke:#000000;stroke-width:1;stroke-dasharray:7,7;"/><polygon fill="#000000" points="508.2225,824.81,510.3998,815.2048,507.2521,819.9051,502.5519,816.7575,508.2225,824.81" style="stroke:#000000;stroke-width:1;stroke-linejoin:miter;stroke-miterlimit:10;"/><text fill="#000000" font-family="Verdana" font-size="13" lengthAdjust="spacing" textLength="62.9624" x="332.6225" y="218.8098">&#171;include&#187;</text></g><?plantuml-src VLJDRjD04BxxAOQUYaHBdP_-eAfII05PAg8qAYTVDkkfC-fwrrhl1WZYrAT0l0ClGGzzBCQkdTHR1KkHTppppNupyqrUk0KM2AKIfAFgbdGfh2XWBkHjRetNsTGeO-7hWXm-yMTu8xnoxursCreXnCCeYXJUE706BEKB1nbPb8wCZY8X7UVOUQTmkGEYWfdp6MhNVPzHvR20IT8u9qaKrKYXSuNiB8HrRoVJ7VWH0J--GYagTaoyunnqGr9OJFNkXSb9lxx2lCvcNpQvhgTn7tI5AwEM303yXbRIms-YL9S8bPyJNugmcxo2fFabNOv1FySNMdcXQDLSwz1OGYW4Lo0SoVkx5ZJiWwOBuK1wS9vBzgehzdewwiVDfD0zUZxL6MaepUh-3dO_JQywLkC-yD9YHf812DeuZcrwraGURkKFbMFI5VFcBZpy8YYjoIrMBV2e3tolHBNWRcSLLv9gYoMw9aaf-5xXrhKVzt7dWjHtu0ueXJh7DkWauCzZPXfbdV3l7vrgHJc1D0LVGewM7Im-271AQ9OZL-ApkbabsihefZxNGG8HpB0Yhn4kJM4oOqqNzhyv2xaWNFAgQDTr9mv6_DcJl8LBowecMIjo8p6megGCrw8SHTjaALWVHTtAL6yaqEv5KCO7r6WVjL8gte9MowAU3l2hHGLLdQEhbujXfTSi-5HNIion3Hw6l7W0GcTD2vwK8p9HyapQWK-IGCHJeQHNpHrhLQRwKPQeAopclDaVBrhmEFePHUrV0kpjdJLRsxS7WJqCx55WZmFxCB2F0liui4z2FWVXXv1X75ACGuxrq2T9OzIZN1y7c-DmSnnjZkCeuWfXVxy1mXiuFIKj5US-EtlY6JppZBTY3blF-9adZblNSBjhzCmrs0Bw1m00?></g></svg>